ply
format ascii 1.0
element vertex 26
property float x
property float y
property float z
end_header
-0.091407	-0.619826	0.056972
-0.192026	-11.365200	-7.088420
-21.959500	-12.853200	-22.458500
20.788400	-12.081600	-24.017900
-22.994600	-37.027800	-14.764400
-17.638600	-34.791100	-18.532700
0.388108	-34.478100	-10.829700
14.744800	-36.039000	-18.884400
27.850600	-40.913900	-20.669700
15.739000	-37.442900	-22.263800
0.338469	-36.545400	-14.406000
-15.954400	-35.253600	-19.626100
-15.897800	29.129000	-34.051500
-35.904200	39.261800	-30.027000
-53.783800	28.735100	-43.761700
-36.368900	20.581800	-36.516000
16.251000	31.131100	-35.309700
36.630800	38.686900	-28.981000
58.123800	26.962900	-47.913500
35.085300	23.291300	-31.818300
-15.246800	41.976700	-24.806600
-33.665500	48.824000	-27.501300
-49.604100	47.929100	-34.984200
15.438400	40.938900	-28.067900
36.435200	47.877800	-27.416000
55.351000	45.470800	-38.536300
