ply
format ascii 1.0
element vertex 26
property float x
property float y
property float z
end_header
0.646813	3.469460	-0.922907
-0.114668	-7.202200	-4.407570
-16.031600	-7.858980	-14.251700
19.409900	-8.547020	-16.534700
-26.634100	-35.416400	-21.074400
-16.002200	-30.057200	-12.580700
0.652109	-27.820400	-5.567330
20.191200	-31.265200	-15.033200
30.143700	-35.454500	-21.251900
15.740100	-32.150100	-12.531900
0.680563	-30.179800	-8.293110
-16.871900	-32.275800	-16.132300
-12.500500	33.699300	-26.331800
-31.650200	42.426400	-22.009400
-51.984900	34.214200	-35.473500
-33.909000	23.659800	-26.070800
17.136500	32.779600	-26.190100
34.176300	40.125300	-21.303500
57.306300	30.474700	-36.378100
33.939700	20.013300	-25.753300
-15.138900	46.876000	-13.729900
-34.625000	51.636100	-16.958900
-52.272200	49.553200	-29.304000
22.770200	44.853900	-15.152300
36.631000	49.903900	-17.172300
57.381300	44.606200	-30.626700
