ply
format ascii 1.0
element vertex 26
property float x
property float y
property float z
end_header
-0.684412	-2.234300	-0.066044
0.456901	-11.275300	-9.174270
-20.730300	-8.679380	-18.234500
21.314200	-7.623800	-20.131900
-28.860900	-39.285400	-25.955700
-15.299700	-35.799900	-16.570200
2.920540	-34.044200	-9.727110
18.536300	-35.789800	-15.991000
30.809800	-36.367700	-24.645600
18.994800	-37.859100	-17.832100
2.609020	-35.898100	-13.378900
-16.484200	-38.072600	-19.578500
-19.252500	29.484400	-31.335500
-36.052600	36.354700	-27.323000
-54.486100	31.382500	-44.050900
-38.305300	24.615800	-33.361800
13.250200	31.647700	-29.914000
30.155000	40.361600	-22.776500
48.743700	34.136500	-34.716800
31.159400	25.822200	-27.566000
-16.275600	41.923200	-20.997900
-34.364600	46.178300	-24.754900
-46.003000	43.305800	-31.231000
14.975400	41.938100	-21.160400
34.520800	48.168400	-23.181100
55.250800	43.866500	-42.228600
