ply
format ascii 1.0
element vertex 26
property float x
property float y
property float z
end_header
-0.160524	-2.753180	-0.206005
-0.890592	-12.056100	-11.651800
-21.825600	-9.703650	-17.931500
20.721700	-10.295300	-19.218900
-31.831300	-36.829900	-22.534600
-17.201600	-34.194000	-14.916700
0.624820	-33.408700	-9.263730
17.973900	-34.787600	-15.253800
26.895500	-36.076500	-18.506800
17.783800	-36.706900	-16.297900
0.753563	-36.084600	-11.330900
-17.464600	-36.807000	-16.264500
-18.672200	31.617500	-26.953300
-35.737500	37.428900	-23.160400
-55.026300	33.165900	-37.975900
-38.824800	25.236000	-28.674200
16.457400	31.045600	-26.872200
33.866500	35.352500	-22.473400
51.177900	28.472100	-36.715400
34.528100	24.994200	-27.351700
-17.217600	38.843600	-18.364400
-35.394700	43.580600	-20.686500
-50.347100	41.534500	-28.358500
17.947900	39.919400	-16.377700
34.382200	44.609700	-19.608200
48.709300	40.328200	-28.771800
