ply
format ascii 1.0
element vertex 26
property float x
property float y
property float z
end_header
0.268815	1.583290	-0.268944
0.650789	-10.190600	-7.341620
-19.674700	-8.647230	-12.721400
20.172900	-7.973570	-14.604600
-27.204000	-35.575900	-16.824000
-15.935600	-32.355600	-8.970160
1.426220	-30.714300	-2.797610
25.424500	-33.360300	-15.778600
33.179900	-37.840900	-22.992100
24.915200	-35.318000	-15.914400
1.079370	-32.686500	-4.016910
-17.509900	-34.961000	-11.229600
-19.250600	28.327900	-23.832000
-34.868500	39.122500	-20.254300
-54.769700	28.685100	-35.105500
-36.458400	22.347000	-24.914900
18.541300	29.714000	-23.934400
35.047400	37.264300	-19.652600
55.031400	29.685400	-36.213700
35.629200	21.879100	-24.180800
-17.013600	44.284200	-12.540000
-34.562200	47.527400	-18.105700
-52.224300	43.792400	-32.001600
19.731300	42.709700	-14.646800
35.911800	47.206000	-19.330900
56.363400	43.630400	-35.632000
