ply
format ascii 1.0
element vertex 26
property float x
property float y
property float z
end_header
-0.035840	4.634760	-0.894108
-0.612334	-10.521100	-7.590700
-19.190900	-9.249550	-15.724800
20.689900	-8.035190	-16.722700
-29.052700	-28.795700	-27.449100
-21.078100	-26.451200	-19.364200
-0.858715	-27.125700	-7.868160
25.769700	-28.324300	-20.911600
31.861700	-33.325300	-27.175900
25.088500	-30.438100	-21.823700
-0.955058	-28.595900	-8.697670
-20.296800	-28.819700	-20.031100
-9.925410	31.806100	-21.758900
-26.900500	35.542600	-17.832100
-44.338900	30.108900	-23.569600
-28.720900	24.628100	-21.544000
8.890840	34.455200	-21.190500
27.597500	40.599400	-15.367500
45.931300	33.453500	-26.409500
29.277900	27.218300	-19.255100
-12.664900	42.438400	-16.245500
-28.870100	45.491700	-16.106900
-41.369100	43.243000	-19.712400
13.559300	45.645500	-13.694900
29.790700	51.535200	-15.453400
46.369600	46.344500	-23.447200
