ply
format ascii 1.0
element vertex 26
property float x
property float y
property float z
end_header
-0.029387	1.895870	-0.266909
-0.850442	-6.267090	-3.732370
-16.131500	-8.012350	-13.629600
15.402500	-9.853380	-14.569400
-28.377600	-33.624800	-21.976500
-13.843300	-30.884900	-10.786900
-0.961904	-30.643700	-6.312040
16.448900	-32.507900	-11.020100
29.532400	-37.828700	-22.650900
16.785400	-35.281400	-11.565900
-0.515600	-33.785400	-6.392390
-14.781900	-34.309100	-12.547500
-18.708800	33.073300	-26.022400
-37.932700	40.516400	-22.450400
-55.534500	33.612400	-40.560900
-36.657900	26.665900	-26.402800
17.574500	34.940300	-26.427600
37.856900	41.251200	-20.809500
56.859800	33.299300	-36.000100
39.363300	26.130600	-24.683200
-14.010100	45.029100	-14.885600
-31.230600	51.384800	-19.352500
-47.090800	48.966600	-28.251100
20.786700	44.714100	-15.923800
35.607300	48.895800	-20.802800
51.254500	45.859700	-29.378400
