ply
format ascii 1.0
element vertex 26
property float x
property float y
property float z
end_header
-1.088040	2.418860	-0.541838
-0.677310	-10.259200	-5.666950
-19.318000	-9.403570	-20.017600
17.734600	-8.726720	-17.485800
-23.789200	-31.971100	-19.262300
-13.721400	-29.810700	-12.146500
-0.770064	-31.439200	-7.779220
13.514100	-31.718000	-13.485400
30.911200	-36.010400	-26.287300
14.450500	-33.705300	-15.512600
-0.763457	-33.009600	-9.438670
-14.591200	-31.511200	-13.264100
-18.598600	31.161200	-29.379100
-34.154700	38.369000	-25.944700
-52.085200	30.379100	-39.896100
-36.151300	25.562300	-30.453600
15.752400	33.988700	-29.438000
34.383500	40.534300	-24.406800
53.589900	28.924900	-40.131900
34.049400	25.967900	-28.993200
-16.726700	44.419900	-22.114600
-33.429500	51.080700	-23.887000
-50.027000	45.821000	-33.995300
17.515200	44.269300	-20.838300
34.677800	50.516700	-23.154400
49.791600	45.682600	-32.821500
