ply
format ascii 1.0
element vertex 26
property float x
property float y
property float z
end_header
-1.066150	1.904150	-0.677628
-1.529300	-10.128500	-7.561530
-17.764800	-7.811850	-13.709900
19.828900	-8.815630	-18.815200
-27.228400	-35.034900	-24.586600
-13.465700	-31.535900	-14.317500
0.167411	-29.236600	-9.038510
17.561100	-30.182600	-15.617800
31.540100	-29.514400	-19.620800
18.000500	-32.209000	-17.657000
0.760405	-32.280000	-10.899600
-13.993500	-33.824200	-16.419100
-18.823600	30.907300	-28.381000
-32.334900	40.843600	-25.242900
-50.265700	34.549300	-35.443500
-32.900300	26.309400	-29.766800
18.231600	32.745500	-28.076300
32.599200	43.979500	-24.510400
50.555600	33.103600	-35.090600
33.728700	25.844800	-29.819800
-20.441100	51.146000	-19.738700
-35.801600	54.850800	-20.593500
-51.120700	51.499200	-30.028400
20.720100	51.920500	-18.789800
35.490600	55.974700	-19.032700
54.204300	53.616000	-31.984600
