ply
format ascii 1.0
element vertex 26
property float x
property float y
property float z
end_header
-0.409648	-0.325228	-0.107056
0.632437	-10.961500	-8.206190
-19.363300	-9.396220	-17.036200
21.956300	-6.920450	-15.893500
-22.962500	-35.051300	-23.557400
-12.929100	-30.789400	-13.642200
1.087190	-30.734800	-8.294570
18.063900	-30.897000	-12.520400
28.410400	-33.789900	-21.600400
19.472100	-33.083200	-15.395500
0.865446	-33.277900	-10.465000
-13.333200	-33.376200	-15.621500
-16.811700	33.784500	-22.007700
-37.225300	39.152800	-18.798800
-54.705400	29.915500	-31.700200
-35.704900	23.174500	-21.843100
10.828000	37.463800	-20.445800
26.519600	46.307400	-15.325100
46.381500	40.834000	-25.153300
28.307100	30.679900	-18.689100
-24.493300	44.162400	-13.404000
-41.474700	46.947300	-21.026300
-55.523700	44.672700	-33.520400
12.433800	47.443800	-11.870600
25.588000	54.116500	-14.231900
45.700300	50.339400	-24.177700
