ply
format ascii 1.0
element vertex 26
property float x
property float y
property float z
end_header
-0.764772	-3.634900	0.305808
-0.571466	-14.118000	-11.687600
-21.911900	-12.387500	-19.738300
21.741900	-9.527640	-18.996400
-27.540200	-41.480700	-25.172300
-18.216300	-36.351400	-16.222700
-2.360450	-33.810100	-10.035500
15.991700	-33.962500	-12.251200
26.638100	-36.566500	-23.301800
16.178200	-35.503800	-14.454700
-2.429300	-35.348400	-12.762400
-17.826400	-38.469000	-16.958900
-19.018800	29.250500	-26.002700
-39.218700	39.453700	-24.827100
-56.978100	30.864400	-40.184700
-40.616900	23.045000	-28.309600
20.748500	33.122200	-24.305200
33.355100	42.879300	-20.244700
50.514900	34.291100	-31.065500
37.361200	26.880700	-24.824600
-21.907600	47.852600	-19.689400
-43.283100	52.087000	-25.209300
-62.782200	47.816000	-47.235100
19.584400	52.332400	-16.267500
34.353600	58.424300	-19.288800
51.836700	53.187200	-30.324700
