ply
format ascii 1.0
element vertex 26
property float x
property float y
property float z
end_header
0.891940	2.837090	-0.537103
-0.395530	-9.701270	-6.108240
-17.181600	-6.015820	-20.775500
19.342700	-6.915320	-20.549900
-26.229900	-28.834600	-16.731100
-13.739000	-23.152500	-10.397900
-1.063330	-23.120200	-7.243220
12.887800	-23.882200	-10.178900
25.719700	-28.835600	-16.606600
12.745700	-26.285600	-9.282110
-2.163530	-24.632600	-6.664870
-14.122700	-25.330600	-9.666480
-13.962400	35.677300	-27.901400
-32.491300	41.749500	-24.311700
-50.790400	34.280900	-38.832200
-30.198400	26.884100	-27.992600
15.729600	32.936900	-28.493400
33.268800	41.218600	-23.827400
54.396300	32.786500	-38.631200
34.264500	25.480600	-28.121500
-18.013100	47.565900	-20.235300
-34.746200	50.818100	-20.888500
-49.060500	50.322500	-29.786900
24.223700	48.819000	-19.657200
38.366500	50.850700	-21.225200
54.441800	47.120600	-33.998500
