ply
format ascii 1.0
element vertex 26
property float x
property float y
property float z
end_header
0.528262	2.782660	-0.651793
1.311040	-12.553900	-9.729530
-18.813400	-10.794700	-19.127700
23.767500	-10.092700	-21.463800
-26.499600	-29.848300	-18.572300
-12.487200	-29.002500	-10.929700
1.222740	-29.752700	-7.028140
20.672400	-31.830800	-14.854900
35.059700	-32.534200	-23.544000
19.256800	-33.850000	-15.611600
0.883920	-31.195900	-8.342780
-10.562100	-31.922000	-9.937730
-20.052800	28.937700	-28.212500
-35.180000	34.822700	-25.135200
-52.389000	28.580300	-38.957100
-37.206000	22.368800	-29.323400
16.729000	32.679700	-27.756200
32.719900	40.701400	-23.352800
51.744400	33.323500	-36.677700
34.950500	27.900900	-26.505700
-18.514200	43.214500	-21.022000
-35.088800	45.939500	-24.503400
-51.428500	42.785000	-34.128500
18.028500	46.460100	-17.690300
33.836500	50.104400	-21.035200
52.477000	47.424700	-32.664000
