ply
format ascii 1.0
element vertex 26
property float x
property float y
property float z
end_header
-0.078560	1.382770	-0.404868
1.189280	-7.587850	-2.769960
-18.285000	-7.199300	-14.953700
19.690500	-5.686800	-12.257900
-24.917800	-33.611500	-24.002100
-14.289700	-31.130500	-15.657100
1.171630	-31.340100	-11.072600
14.675000	-31.960900	-15.214000
25.695500	-35.018000	-24.152600
13.414200	-34.254600	-15.749200
0.432732	-33.420000	-12.256800
-14.419500	-33.048800	-17.240100
-18.886600	29.815200	-23.290200
-32.825500	37.841400	-21.066800
-50.731400	32.715500	-36.740200
-34.272200	24.869400	-25.189600
21.051100	29.840100	-23.635100
36.783600	40.587900	-21.220000
53.468300	33.955800	-34.291200
38.581300	27.575600	-24.144600
-14.362200	47.608900	-16.262700
-30.796000	52.566000	-19.310500
-45.820400	50.681200	-27.847000
20.382100	48.370000	-15.372800
38.745200	53.941600	-22.163700
53.557000	49.928500	-32.333800
