ply
format ascii 1.0
element vertex 26
property float x
property float y
property float z
end_header
1.378720	1.658920	-0.422358
0.973141	-11.138100	-10.653700
-18.066300	-7.658340	-11.338400
22.845500	-8.667290	-18.485800
-24.494000	-33.591600	-23.058400
-11.366600	-31.425900	-12.946500
1.192670	-31.092000	-10.344800
19.397200	-32.185000	-16.150600
31.325700	-32.499900	-24.844100
19.358100	-34.318000	-18.112100
1.225970	-33.509200	-11.328400
-11.193400	-34.058400	-14.416500
-17.860600	29.274100	-27.693300
-32.870200	35.948600	-23.329800
-52.245300	26.974000	-37.396800
-35.398500	22.698700	-28.357800
15.543100	29.651400	-26.283200
32.804000	36.721000	-21.694800
53.717800	30.855000	-36.983600
33.859200	24.499000	-26.449000
-14.990800	41.043600	-19.140700
-29.070000	45.980700	-18.497600
-45.488900	42.348900	-26.558600
19.715200	42.427700	-19.262900
33.273500	46.386100	-18.123900
54.371300	42.382800	-35.334000
