ply
format ascii 1.0
element vertex 26
property float x
property float y
property float z
end_header
0.325493	3.343160	-0.682860
0.877219	-10.007000	-11.034100
-17.333600	-7.880160	-17.635200
23.137600	-8.843740	-25.739000
-30.244700	-38.102300	-28.294200
-16.717500	-33.617000	-16.257700
2.669110	-33.080300	-10.009600
19.720900	-35.881700	-16.997400
30.492500	-38.765200	-26.935700
16.543600	-38.974500	-16.143900
0.035319	-37.269000	-11.646400
-14.638900	-37.218300	-16.015900
-19.042300	25.712000	-30.845700
-32.390100	33.608900	-27.197100
-52.781600	25.865200	-47.296000
-38.220500	20.792100	-33.478900
17.476800	26.438700	-28.193300
33.391000	33.841500	-25.041800
53.102800	24.590400	-42.445400
34.512000	19.237200	-29.756600
-17.138000	42.369400	-21.771900
-32.662900	47.854300	-25.672100
-48.884900	44.810000	-36.137000
19.544700	42.665000	-20.711900
35.523400	47.191000	-24.294600
49.741400	42.493100	-32.777800
