ply
format ascii 1.0
element vertex 26
property float x
property float y
property float z
end_header
-0.780203	2.836480	-0.669002
0.019684	-7.578950	-6.128140
-18.707400	-6.803570	-12.260200
19.106700	-9.964300	-18.292800
-27.686100	-30.501000	-26.577900
-15.869100	-27.753200	-14.381400
1.791330	-26.823800	-10.835600
17.658700	-28.138500	-16.552700
28.327000	-28.961500	-25.592200
16.912500	-29.795800	-19.216300
1.347420	-29.182400	-13.168700
-15.364000	-30.013700	-16.516900
-15.762600	27.944900	-27.123400
-29.289100	35.231500	-20.756700
-48.551000	31.533700	-32.401200
-32.776100	23.323700	-26.811800
15.143600	32.126500	-27.584300
32.347600	37.950200	-20.967900
48.811400	31.252900	-35.233400
34.731700	28.312200	-25.510700
-15.938200	40.144500	-16.253000
-30.257700	44.744700	-17.711900
-45.098700	43.969200	-26.207200
10.550000	40.970600	-15.734800
27.846200	45.946200	-16.701300
42.351500	41.024900	-24.452600
