ply
format ascii 1.0
element vertex 26
property float x
property float y
property float z
end_header
-0.897629	1.645230	-0.161333
-1.292740	-9.517450	-6.144690
-18.799000	-8.448490	-14.348100
21.102300	-8.038610	-15.999700
-26.001900	-35.476100	-23.011900
-13.792300	-33.716800	-14.108000
-0.054254	-34.098700	-8.721780
15.084800	-34.840800	-12.902200
28.037600	-37.012200	-23.767800
14.500800	-37.496400	-14.600300
-1.191430	-35.156200	-10.983400
-14.646800	-35.812700	-15.919800
-20.494600	31.286000	-26.517700
-34.050100	39.398700	-22.411600
-51.342100	33.169100	-34.401000
-39.622300	27.128400	-28.533500
15.748300	32.203300	-26.088300
31.981200	38.715500	-20.961100
53.126700	30.677300	-34.361400
35.039200	25.909700	-25.914200
-14.754400	45.148600	-16.969000
-32.650900	50.550600	-18.386100
-44.839900	46.889200	-24.428800
16.360300	46.629000	-14.770700
31.920000	51.672400	-16.908200
48.831500	46.961200	-24.850600
