ply
format ascii 1.0
element vertex 26
property float x
property float y
property float z
end_header
-1.239820	0.741736	-0.260993
-1.361950	-12.101700	-10.173400
-17.504700	-7.495620	-11.098700
18.672100	-10.122200	-12.427600
-26.775900	-31.639900	-25.797900
-11.592400	-29.854300	-13.370900
2.695530	-30.065500	-9.873610
21.509500	-31.285400	-17.271200
33.040900	-31.543800	-25.115300
21.196000	-33.079100	-18.779000
2.154700	-32.374400	-10.314700
-10.983300	-32.005200	-13.953200
-20.744600	27.645400	-28.976000
-31.941200	37.023500	-27.418500
-48.509200	28.498900	-38.483700
-34.022600	23.571000	-29.374000
20.226200	30.742400	-28.047300
35.018900	39.617800	-26.507300
50.676700	28.458000	-38.027300
36.214700	21.243400	-28.693800
-20.573500	46.516800	-21.850400
-32.987400	51.391600	-21.834300
-45.939500	47.774500	-32.131700
19.653300	47.106300	-20.108400
33.573400	53.241600	-22.228600
48.670200	49.616600	-32.108300
