ply
format ascii 1.0
element vertex 26
property float x
property float y
property float z
end_header
-3.055400	1.381520	-0.701651
-3.214260	-11.628300	-8.222520
-19.545900	-9.591540	-17.216600
18.222400	-8.245800	-16.675800
-25.328800	-32.647200	-19.568600
-15.319800	-29.793200	-15.105900
0.211635	-27.724800	-8.615530
13.647400	-26.949200	-10.868700
26.962100	-30.851400	-19.210000
12.781700	-28.613100	-13.547400
-1.905960	-29.313500	-12.181200
-15.870600	-32.786800	-17.319000
-20.282200	26.232100	-30.679000
-37.338100	36.847300	-27.872400
-57.309600	25.444600	-46.218100
-37.024500	18.589000	-31.661300
17.342700	28.459700	-29.914300
34.298500	34.997200	-26.212300
52.726700	27.755000	-41.883200
32.937700	22.202200	-29.471500
-18.246600	42.180600	-22.155500
-32.200800	49.179000	-22.760500
-48.908500	45.227600	-32.567200
14.181900	43.351100	-20.550500
30.570500	48.108600	-20.753800
51.984300	44.114900	-35.630800
