ply
format ascii 1.0
element vertex 26
property float x
property float y
property float z
end_header
-0.437386	1.784980	-0.387892
0.453285	-9.857630	-10.363800
-17.092700	-9.667080	-13.094800
17.350800	-6.710690	-10.006100
-22.848100	-34.366100	-22.609300
-12.541700	-31.851700	-13.761600
0.397323	-29.555200	-8.493790
15.061100	-30.209300	-12.651700
24.812200	-32.568100	-23.004400
13.750400	-31.654600	-14.418600
-1.822800	-31.691600	-11.730800
-12.569100	-33.751000	-15.571800
-19.274200	31.143600	-24.899500
-32.416700	38.290800	-20.665700
-49.318000	32.581200	-32.310600
-33.824900	25.946600	-24.516300
19.262600	32.483300	-23.834500
34.139100	37.702500	-19.274200
49.991300	31.960600	-30.212700
34.615100	28.211500	-22.880400
-17.734200	47.418600	-15.956400
-33.177300	51.080500	-19.334600
-47.919300	48.852300	-27.114000
22.355800	47.468500	-16.345300
35.373500	50.001400	-18.192000
51.339500	48.708400	-29.725600
