ply
format ascii 1.0
element vertex 26
property float x
property float y
property float z
end_header
-0.199819	-0.372278	0.003949
-1.256050	-10.238300	-9.384980
-15.182800	-10.116500	-13.054500
16.181300	-6.690480	-11.903900
-23.385500	-36.535400	-22.364900
-14.118300	-35.393200	-16.965300
-0.445493	-35.121600	-12.471400
14.389200	-35.133500	-16.751500
26.559500	-37.235900	-26.191500
13.838100	-36.589800	-18.600500
-1.426820	-36.874900	-14.469600
-13.849200	-37.483700	-18.092400
-19.566300	27.860200	-27.777500
-30.594700	34.152800	-24.060300
-47.098700	29.254100	-34.144700
-33.004300	24.339900	-28.397700
20.791400	28.154600	-25.835900
32.267600	36.526900	-21.792400
49.676700	27.281400	-32.084000
33.108300	21.955200	-25.457100
-16.398500	42.837500	-17.264100
-30.184200	45.116600	-18.250500
-44.749300	42.567700	-24.709000
19.701000	44.629000	-14.991600
34.257100	47.427600	-16.644500
52.193700	43.208600	-26.177000
