ply
format ascii 1.0
element vertex 26
property float x
property float y
property float z
end_header
0.010639	2.212350	-0.517134
0.439998	-10.543800	-5.763900
-18.985100	-10.871000	-12.810300
23.245400	-6.711530	-15.685300
-24.775200	-40.042400	-27.521400
-13.037500	-34.720900	-14.837900
1.493940	-33.429400	-10.097300
18.363700	-31.388200	-13.585600
32.500600	-36.371600	-25.524700
17.001600	-33.579000	-14.529500
0.985204	-35.381700	-11.336800
-13.963400	-37.661200	-16.808500
-22.821100	29.589100	-26.554000
-37.826400	35.456400	-23.982500
-55.339600	25.301500	-37.674600
-39.858200	21.235900	-28.310100
14.849900	32.306900	-25.289700
35.633000	44.391600	-21.295100
55.914400	39.209000	-35.630000
36.034100	28.084200	-24.216700
-18.831400	44.788100	-16.706400
-36.976200	49.003700	-18.092400
-52.940600	47.003700	-28.054800
17.396400	48.173300	-15.098700
32.183000	53.610900	-15.694700
51.978900	52.926600	-30.238100
