ply
format ascii 1.0
element vertex 26
property float x
property float y
property float z
end_header
0.765789	1.207930	-0.147145
0.366875	-10.340600	-6.127850
-17.871100	-11.730100	-14.785100
22.319100	-8.899180	-19.592600
-26.379400	-38.238700	-24.285700
1.771900	-31.137800	-11.183900
-12.797600	-34.091500	-14.427500
18.118600	-30.954600	-12.841100
29.090300	-35.451000	-23.310900
17.380600	-33.539900	-14.151900
1.518100	-33.197300	-12.480400
-13.913800	-37.268500	-15.942300
-21.630900	31.438400	-28.987100
-36.976600	38.616100	-25.958800
-53.659800	33.484200	-39.330900
-38.997500	25.351600	-30.500500
17.437300	30.983900	-28.744500
32.197800	39.732600	-24.115400
48.269000	35.095900	-36.520400
34.726100	25.333800	-30.062200
-23.713600	48.954500	-19.276900
-37.128200	52.658000	-21.387900
-49.755100	52.092100	-29.078700
17.098500	47.855200	-17.417700
28.832700	52.891700	-17.487900
48.229100	52.894300	-31.504500
