ply
format ascii 1.0
element vertex 26
property float x
property float y
property float z
end_header
-0.891698	-0.413557	-0.093840
-1.429140	-9.625160	-5.107320
-19.217800	-8.836800	-13.415200
20.897300	-7.750150	-17.451000
-24.976200	-35.966900	-22.273800
-12.701200	-31.767500	-12.775500
1.622600	-31.620200	-7.941950
16.512400	-31.038200	-12.744000
26.285600	-33.298500	-19.315400
15.949600	-33.559600	-14.708900
-0.200724	-33.942600	-10.158500
-16.144000	-34.928800	-16.834700
-17.779300	31.066400	-26.284500
-35.329200	39.653600	-23.147300
-56.391600	31.476300	-39.363200
-37.096600	24.930100	-28.557700
17.354000	33.638700	-25.106400
34.008200	41.647700	-21.563300
52.024100	30.642400	-35.714200
35.960700	26.138700	-26.700700
-18.636500	48.677100	-16.316200
-33.683500	52.088700	-18.277000
-49.011900	51.006100	-26.770200
21.302000	50.536800	-16.987400
34.977900	55.215900	-18.608600
51.461100	53.417400	-29.972900
