ply
format ascii 1.0
element vertex 26
property float x
property float y
property float z
end_header
1.849310	-1.713470	-0.022593
1.432400	-11.474300	-12.305100
-17.997900	-9.583000	-17.588200
23.105900	-9.290660	-20.222600
-24.483200	-38.292600	-22.428800
-15.112600	-35.053500	-16.234300
1.131330	-32.420800	-10.255000
18.371800	-33.245600	-15.476100
29.405100	-39.459000	-29.379100
17.187100	-35.549700	-18.445900
-1.520730	-36.056100	-14.380300
-16.345300	-38.308800	-18.669300
-17.020800	31.082800	-28.194800
-36.195300	43.171500	-26.318900
-53.373000	30.093900	-41.968500
-36.391000	24.495200	-27.749100
15.582800	33.972100	-28.648500
37.195500	41.972200	-25.684500
53.712800	31.517800	-40.596800
39.238200	27.357700	-27.966000
-15.058500	46.799800	-18.928700
-34.039900	53.721100	-22.843400
-48.812100	50.326200	-33.351700
19.564300	48.541700	-17.492800
32.401800	52.636700	-19.253200
51.914600	49.588200	-34.426900
