ply
format ascii 1.0
element vertex 26
property float x
property float y
property float z
end_header
0.470259	1.145330	-0.349335
0.796095	-11.362700	-10.312200
-16.517800	-7.373260	-14.851500
21.134200	-9.152550	-22.239100
-21.246900	-34.038400	-24.693800
-10.713400	-31.794000	-17.677400
2.443540	-32.233000	-13.324300
14.543100	-30.733200	-16.703000
33.358900	-36.101500	-29.874300
14.622200	-33.189700	-18.489100
0.764096	-34.213400	-15.224900
-12.468600	-34.715800	-20.276600
-19.384300	26.681300	-33.812500
-33.014600	36.049000	-30.424100
-54.382900	30.320200	-49.010400
-34.183700	21.674500	-35.538700
20.552500	30.731000	-32.490700
34.671900	40.480900	-29.631000
55.054200	30.662800	-44.621000
35.508600	24.849500	-32.659700
-15.987900	44.521400	-24.788400
-33.591000	51.499300	-28.169700
-51.070500	48.660000	-39.784600
19.038600	47.451600	-23.389000
36.289600	53.745600	-28.342300
54.809100	48.779400	-40.973900
