ply
format ascii 1.0
element vertex 26
property float x
property float y
property float z
end_header
0.417267	2.761450	-0.747487
-0.019105	-10.746900	-7.518960
-19.266200	-7.881730	-13.756500
20.661300	-7.575240	-15.185500
-26.330400	-34.939500	-26.201400
-14.747700	-32.001100	-15.137600
-0.356488	-31.052300	-10.198300
16.688900	-32.532100	-15.035900
24.151000	-32.132200	-18.906900
14.924100	-33.829900	-17.548200
-2.928610	-32.549300	-13.083600
-16.271300	-34.048400	-18.531900
-21.466600	32.982500	-24.131600
-36.575800	42.125200	-22.313600
-53.900200	34.106500	-35.132300
-37.998000	26.049900	-25.759400
21.392700	34.863800	-24.420300
35.976200	42.554700	-21.967600
52.073200	34.031300	-33.876200
34.981800	29.294500	-24.969500
-16.360900	48.452800	-17.229200
-33.260800	54.026000	-18.163600
-47.180700	49.815900	-24.718500
16.222900	51.034900	-16.164300
31.340900	55.362300	-17.965000
51.755200	50.891900	-29.663800
