ply
format ascii 1.0
element vertex 26
property float x
property float y
property float z
end_header
0.329269	1.355880	-0.033607
0.204264	-12.553800	-11.869800
-20.206100	-11.458500	-18.299100
22.277000	-10.541100	-18.166200
-25.687400	-39.097900	-22.959800
-14.654300	-35.868200	-14.665500
3.547410	-33.495500	-8.293740
22.752900	-34.799700	-14.745700
31.681900	-37.877100	-21.489200
21.833400	-37.364100	-15.706300
1.552910	-36.546500	-11.299700
-16.609400	-38.536700	-17.715900
-17.742600	29.252300	-27.348800
-32.109600	39.131500	-22.799700
-51.587800	28.701400	-35.162700
-34.884500	19.929400	-29.439300
17.820200	31.587800	-27.277200
34.503000	40.444400	-22.106700
54.934900	30.645700	-35.470100
34.675900	22.233400	-27.384300
-14.588900	46.511000	-15.494500
-32.702500	52.114000	-17.140000
-54.866200	47.170600	-32.460700
16.264200	46.515400	-15.530400
30.685200	55.171500	-16.549400
50.303900	49.175800	-25.793500
