ply
format ascii 1.0
element vertex 26
property float x
property float y
property float z
end_header
-0.446827	1.310660	-0.090345
0.339643	-8.144440	-8.423380
-17.110900	-8.817970	-15.926100
18.303100	-6.024160	-16.588100
-21.679500	-30.963100	-16.993600
-12.879300	-28.560900	-12.426900
1.224200	-28.304400	-6.293180
13.960100	-27.019400	-8.408340
25.338300	-31.473900	-17.542900
13.317600	-28.627400	-9.290420
0.519301	-30.028600	-7.787990
-13.846400	-30.854000	-14.244000
-18.674200	29.290100	-25.840300
-36.404500	37.415400	-22.556600
-51.438900	28.175200	-34.756400
-36.155700	20.412600	-26.529300
11.756000	31.687500	-24.075300
28.059200	40.003400	-19.726400
48.414800	32.159500	-35.101900
32.805000	26.221400	-24.145300
-17.280600	45.167500	-18.277300
-33.585300	50.848200	-20.351300
-46.914100	46.015000	-27.211200
16.715000	47.051400	-17.160600
30.102500	53.193400	-19.554600
48.657000	49.281600	-31.893300
