ply
format ascii 1.0
element vertex 26
property float x
property float y
property float z
end_header
1.078030	2.025620	-0.164751
1.912530	-10.328200	-8.825610
-21.881200	-9.310100	-17.883000
19.575600	-8.677810	-16.169300
-24.142500	-34.640700	-18.816700
-11.480400	-32.137100	-10.698900
0.690351	-31.419600	-6.668770
13.980000	-30.668600	-10.074600
27.205600	-32.541200	-19.170100
13.604300	-32.374000	-11.866600
1.163990	-32.796400	-7.909940
-14.545900	-34.480200	-14.090400
-18.021400	29.485700	-24.120800
-33.931200	38.093700	-20.395000
-48.859800	29.334900	-32.058700
-37.305800	21.499200	-25.342800
20.056700	31.189300	-22.524900
34.641200	39.764600	-19.412100
52.528000	29.820100	-32.757100
34.102900	24.557500	-21.938200
-14.684600	45.700900	-13.806400
-30.542800	51.334700	-17.865200
-43.092500	46.483900	-25.253700
19.712000	46.817800	-12.375300
34.884000	52.653000	-18.005900
50.037400	48.273500	-29.321300
