ply
format ascii 1.0
element vertex 26
property float x
property float y
property float z
end_header
-1.550190	4.500260	-0.916902
0.512646	-6.665650	-3.193310
-17.177900	-7.319030	-12.320200
19.597000	-7.957900	-17.737400
-17.155600	-29.861000	-17.357300
-9.991910	-27.918500	-14.602100
3.492010	-27.428100	-9.021720
17.573800	-26.431000	-12.176000
30.680900	-30.109500	-20.797600
17.673900	-29.079100	-14.875900
3.098010	-29.243700	-11.504000
-10.740300	-30.317500	-17.084800
-21.384300	27.153500	-24.023400
-38.713400	34.789700	-20.414000
-56.641700	28.343400	-35.846900
-40.193000	19.801000	-23.804900
19.402600	28.482200	-21.984100
32.577200	35.093300	-17.481200
53.478600	30.597100	-31.158500
32.475100	23.004600	-20.602100
-16.225300	36.853400	-16.922800
-35.472600	46.533400	-19.972000
-54.513600	41.881400	-30.499100
15.820500	41.970600	-13.784700
31.217600	46.731100	-17.340100
51.327800	43.022900	-27.069800
