ply
format ascii 1.0
element vertex 26
property float x
property float y
property float z
end_header
-1.021160	0.623426	-0.298989
0.081864	-11.891400	-9.781590
-19.014000	-6.833610	-13.092000
18.339200	-8.246620	-14.298400
-25.752900	-31.175000	-20.161300
-13.276300	-29.547700	-11.032400
0.205252	-29.765900	-6.931260
12.563400	-30.129500	-10.324700
23.360600	-32.088000	-18.306400
11.513500	-32.054900	-11.752600
-1.599410	-31.547000	-9.355620
-15.047500	-31.567500	-13.698000
-18.393400	31.435700	-26.070100
-34.501100	40.586100	-23.298200
-51.779500	30.676000	-41.036600
-33.809500	24.319400	-27.738300
15.514100	32.309500	-25.669700
32.942900	42.271300	-22.377800
51.376700	34.348800	-38.965600
33.599000	25.668400	-27.779700
-15.962300	44.434200	-17.542600
-31.574500	50.058200	-21.278000
-48.669500	47.277100	-32.455400
17.192700	47.336300	-16.480600
34.731600	50.657200	-22.603600
55.188200	48.707600	-41.666400
