ply
format ascii 1.0
element vertex 26
property float x
property float y
property float z
end_header
0.065592	0.930997	-0.092622
-1.200440	-11.882600	-7.348480
-18.833100	-7.913500	-14.577400
18.819000	-7.175480	-15.391000
-21.576500	-31.848300	-17.027200
-10.774000	-29.489300	-10.925400
0.496046	-30.285400	-7.681010
12.137200	-30.314600	-11.184600
22.316600	-31.434900	-17.066200
11.906200	-32.032800	-12.958400
-0.962421	-31.780900	-9.404780
-14.922800	-32.390400	-14.521600
-20.685600	23.514100	-25.907700
-37.713700	31.703400	-22.924400
-53.546600	23.135100	-34.233500
-38.299300	17.815200	-26.580300
18.610100	26.113900	-24.559200
31.688700	33.347600	-21.191600
49.609800	27.154600	-31.997300
33.788400	20.891300	-24.126500
-22.106800	39.979600	-18.125200
-37.521800	44.131100	-21.726400
-51.710200	39.996400	-29.821800
19.372300	42.442400	-17.205400
36.365700	47.052700	-20.870300
51.746300	41.907500	-31.463300
