ply
format ascii 1.0
element vertex 26
property float x
property float y
property float z
end_header
0.596396	-0.107178	-0.036373
-0.226143	-11.074100	-10.418100
-19.362300	-10.526400	-13.468400
21.063500	-11.469900	-18.365700
-26.995700	-37.502100	-19.857700
-13.271700	-35.035100	-12.417800
1.303940	-33.641600	-6.321310
16.376600	-34.189900	-11.571200
31.454400	-37.348100	-23.504900
15.178900	-36.213500	-13.759300
-2.898040	-35.438500	-13.054700
-15.488500	-38.261200	-15.814300
-17.206600	32.137900	-27.113200
-32.047700	37.108100	-21.011900
-49.964100	30.183000	-32.962100
-35.674300	22.524800	-27.928800
18.149500	32.155300	-27.374200
36.195600	39.429300	-21.841400
53.228900	33.620700	-35.136700
35.732800	23.918800	-28.296000
-20.108000	45.625900	-17.392000
-32.860400	49.096800	-16.928800
-45.178500	45.266100	-21.768800
25.617100	45.443100	-19.524600
37.588400	49.398900	-19.128900
56.261600	45.766800	-33.817200
