ply
format ascii 1.0
element vertex 26
property float x
property float y
property float z
end_header
0.430587	-0.631859	0.114757
0.404060	-10.051800	-4.908700
-17.721400	-9.243080	-19.291900
19.299300	-8.853300	-19.876900
-23.856100	-39.583700	-23.395100
-12.392700	-35.616400	-15.915200
2.838520	-35.487300	-14.402100
18.487600	-36.185600	-17.874300
30.260100	-39.004200	-27.197100
17.051000	-38.803100	-18.624700
1.011510	-39.004000	-15.679100
-14.625100	-38.867400	-17.639200
-20.026900	32.599500	-31.195700
-37.126000	38.770500	-28.349000
-53.215200	32.328700	-40.224500
-38.283000	26.233900	-32.978500
17.833800	36.352300	-31.901400
36.738000	42.389300	-28.081700
54.454100	30.050300	-41.912100
38.648200	27.105800	-31.938300
-15.658500	46.495500	-21.305400
-32.124200	51.494900	-25.015900
-46.943900	50.359100	-29.625900
23.180900	46.412400	-24.037800
35.163900	49.906900	-26.492700
54.290300	46.609500	-36.211300
