ply
format ascii 1.0
element vertex 26
property float x
property float y
property float z
end_header
0.630193	0.849205	-0.168063
-1.447780	-8.484670	-5.232980
-18.950700	-7.712650	-13.822800
20.265500	-7.617920	-17.158900
-27.418500	-37.109800	-24.564700
-14.394900	-30.931200	-12.071200
2.677240	-30.216800	-6.488200
18.557500	-30.077800	-12.320600
28.542500	-36.196700	-22.336500
18.143200	-32.834100	-11.769800
1.902420	-33.406400	-5.805640
-15.817800	-34.103200	-11.947100
-20.895000	27.313100	-30.762400
-35.412000	34.803600	-27.751200
-52.190500	28.261700	-42.015500
-37.981300	22.828500	-32.766800
17.581700	29.527000	-29.721800
35.067400	35.513700	-25.291600
53.132300	26.800900	-40.950400
37.520200	23.670900	-30.227800
-17.544100	46.749300	-22.801900
-32.461500	52.010900	-25.843700
-45.856700	48.030300	-33.349000
21.538900	47.591700	-22.511300
36.188300	53.966200	-27.036400
52.591000	47.850400	-35.672100
