ply
format ascii 1.0
element vertex 26
property float x
property float y
property float z
end_header
-0.095154	2.671040	-0.280479
-0.981854	-6.813030	-4.420480
-16.766500	-6.254440	-9.971880
18.393700	-6.620300	-9.506890
-24.565600	-32.027800	-19.129100
-15.613100	-31.654100	-14.857600
-0.910234	-31.415500	-7.176010
13.933800	-31.866100	-12.826300
25.652300	-33.468300	-19.658300
12.663400	-33.829400	-16.386600
-4.229560	-32.717400	-13.648000
-18.188200	-34.046400	-19.027600
-15.147600	29.228500	-22.787700
-32.554000	36.210200	-19.597700
-47.868800	30.319400	-30.280900
-31.208100	24.316300	-22.679900
17.905100	29.232200	-22.949600
34.929500	35.778400	-19.782600
53.604500	27.195200	-36.940300
35.797400	24.764900	-23.103100
-15.773300	42.357100	-13.569800
-29.115600	46.103900	-16.895600
-44.926100	44.096200	-24.420100
23.059700	42.025400	-14.872900
38.271700	45.807200	-18.449200
55.314700	42.687900	-36.042000
