ply
format ascii 1.0
element vertex 26
property float x
property float y
property float z
end_header
0.065627	2.893600	-0.418863
0.010200	-8.091160	-5.666970
-17.910600	-9.385090	-15.876700
21.725300	-9.693790	-18.312500
-21.625800	-34.435100	-23.586500
-11.225400	-31.230300	-14.421600
2.735470	-31.016200	-10.392800
17.602200	-30.970100	-15.751600
28.030600	-33.985500	-25.521700
16.546800	-32.650000	-17.018500
2.370350	-32.726500	-11.867500
-12.263900	-33.978900	-16.493700
-20.631400	28.118500	-22.310300
-35.763800	35.748800	-18.840700
-53.182200	28.903000	-33.976300
-35.515300	20.278700	-22.825400
18.564000	30.298900	-22.395000
33.568200	37.351500	-17.125500
50.354700	31.449300	-29.293200
33.947100	25.035000	-20.074400
-16.511100	47.271600	-14.271500
-33.432800	51.051300	-17.594300
-48.796300	49.423600	-25.895200
22.263600	51.930300	-14.462000
36.227200	54.931500	-17.852300
53.574800	49.854700	-29.721900
