ply
format ascii 1.0
element vertex 26
property float x
property float y
property float z
end_header
0.553720	0.167641	-0.045215
0.156361	-9.030580	-3.696560
-14.562700	-7.276580	-13.216900
15.595700	-7.902300	-11.363100
-26.561900	-32.907700	-27.283700
-12.133300	-32.075500	-17.289400
0.586974	-32.876800	-12.662800
13.543000	-33.292900	-15.470900
26.379800	-35.919800	-26.806400
12.454800	-35.609700	-17.968800
-2.307630	-34.704500	-16.553400
-15.672800	-34.500100	-21.823900
-16.005400	31.310600	-29.347100
-30.866600	36.922500	-26.079900
-47.276900	33.124100	-38.490900
-33.170200	25.943300	-30.155600
19.884300	29.502200	-29.021200
35.117600	35.569900	-25.717000
54.584000	28.083900	-40.861100
35.614400	21.433600	-29.289700
-14.197400	44.866100	-21.408400
-30.884300	47.131400	-26.223000
-42.342700	45.861000	-31.154200
18.058200	44.962800	-22.355700
34.207200	48.824700	-25.530700
48.990200	43.827000	-33.582300
