ply
format ascii 1.0
element vertex 26
property float x
property float y
property float z
end_header
-0.332001	1.463660	-0.150889
-0.469721	-7.051680	-4.753260
-14.927600	-8.046410	-10.380000
20.144700	-7.968950	-13.738000
-24.400100	-34.761200	-15.482700
-13.341100	-34.571600	-8.771280
0.924762	-34.450000	-3.168220
14.785800	-34.145100	-8.660490
29.085500	-37.704800	-23.130500
14.943900	-35.824200	-10.597500
-1.385250	-36.026900	-5.189790
-12.946600	-38.402200	-9.487740
-18.659600	29.995500	-22.444000
-36.772000	37.733600	-19.969300
-54.394000	30.804000	-37.755900
-37.933000	24.749200	-24.081600
18.444200	32.224700	-22.795800
37.312500	34.973200	-18.110400
54.226600	27.203000	-29.808000
36.468200	21.596800	-21.930700
-13.432400	44.325300	-12.627100
-30.751900	49.676200	-17.742900
-45.281400	46.662100	-25.247700
20.585000	41.067200	-13.980500
35.447200	45.690600	-17.010200
56.380800	38.713000	-31.560800
