ply
format ascii 1.0
element vertex 26
property float x
property float y
property float z
end_header
-1.203520	0.332070	-0.146189
0.030103	-9.698770	-5.893870
-17.619500	-8.335550	-12.078000
18.235100	-9.267650	-17.002700
-26.038900	-34.734300	-18.082400
-15.642600	-32.985400	-10.485000
2.167760	-31.565500	-3.003070
15.944900	-31.500600	-9.546370
24.600100	-33.767000	-17.493800
15.304100	-33.937300	-11.600000
0.714302	-33.694400	-4.355180
-15.327700	-35.372500	-10.748100
-15.888900	27.739800	-25.661300
-30.921800	34.136200	-23.741900
-49.588600	28.347000	-38.435800
-30.936900	19.046700	-27.653700
15.962500	29.943500	-26.091700
31.757400	36.710500	-23.496400
46.550100	28.539300	-33.037000
31.331900	21.662000	-26.732500
-15.909400	42.613900	-18.287000
-29.244900	44.118800	-20.320200
-40.722000	41.244200	-25.582400
14.992100	42.659200	-18.695300
30.228700	47.718100	-21.758700
46.794400	42.992800	-29.692500
