ply
format ascii 1.0
element vertex 26
property float x
property float y
property float z
end_header
0.947929	1.702820	-0.236568
0.462117	-10.058000	-6.208980
-18.874800	-12.236100	-14.414300
24.886200	-8.787130	-14.915000
-19.621500	-36.431400	-13.045700
-11.137400	-35.916100	-10.157900
1.305110	-32.985200	-5.005360
16.946300	-32.543300	-8.819650
32.735200	-32.662100	-18.375400
16.524600	-34.509500	-9.982800
-0.288181	-35.268300	-7.342640
-14.921100	-39.182300	-14.150000
-20.679200	25.310100	-24.383100
-35.773600	32.425800	-21.991600
-51.975800	21.514500	-37.356000
-36.955200	16.682600	-26.711100
17.858000	32.449800	-22.351200
30.531700	40.194400	-18.535900
48.391100	34.314000	-29.428600
34.028000	25.658500	-21.754900
-19.042200	42.614600	-16.278100
-32.994600	46.392900	-18.344200
-46.284800	43.123300	-25.117600
17.531000	47.053000	-16.544800
32.783600	52.676400	-18.791800
48.078400	51.676400	-27.597100
