ply
format ascii 1.0
element vertex 26
property float x
property float y
property float z
end_header
-0.930014	-1.522800	-0.049108
-0.725175	-11.154600	-10.010200
-18.433300	-11.551700	-19.254400
17.989200	-11.636000	-20.193400
-23.752000	-32.548300	-18.624600
-18.234200	-32.227600	-15.195600
-0.183470	-30.988200	-6.468750
14.277100	-31.568800	-11.608100
22.508900	-35.105100	-20.373600
12.855500	-33.215200	-12.988500
-1.807100	-32.765800	-8.210180
-16.766000	-33.340100	-14.700600
-17.999400	27.264200	-30.063100
-31.468100	33.925000	-25.885800
-48.821000	27.336400	-39.364700
-32.977300	19.306900	-30.059800
14.296600	25.390400	-30.034500
30.255000	32.531800	-25.749300
47.321100	24.831600	-37.687600
31.099600	18.825200	-29.577300
-16.224600	43.738400	-19.705900
-31.996800	46.903000	-23.097000
-45.936800	44.324900	-31.767800
18.916800	42.504700	-20.659800
34.764500	46.695400	-24.928200
49.543000	42.518500	-36.566100
