ply
format ascii 1.0
element vertex 26
property float x
property float y
property float z
end_header
0.083071	1.578280	-0.408669
1.330920	-9.379940	-9.346810
-15.574000	-8.583450	-13.440800
20.674200	-5.315880	-11.243500
-21.267000	-34.958100	-19.000500
-12.814200	-32.837000	-10.951400
3.244730	-32.030100	-4.854500
15.617400	-32.285200	-8.999740
30.970700	-34.276700	-22.022100
16.717200	-34.009300	-11.919200
0.784994	-34.194200	-8.140990
-15.731000	-35.020100	-14.793500
-19.150400	27.307600	-26.023900
-34.783400	38.088800	-23.724600
-51.578100	31.345500	-35.694900
-36.264300	23.682800	-27.774300
18.109100	29.073000	-24.297400
34.953800	39.287400	-21.606300
52.348900	30.854000	-35.212500
35.059900	23.658500	-25.804100
-19.714600	45.915600	-16.315900
-35.995400	49.368200	-19.651900
-51.911800	45.488900	-30.288900
19.770500	45.917900	-16.338900
32.655300	51.339600	-17.610700
56.902600	47.293300	-34.420100
