ply
format ascii 1.0
element vertex 26
property float x
property float y
property float z
end_header
1.418910	-0.060265	-0.051598
1.641570	-12.861000	-10.062800
-16.786600	-13.972800	-15.626300
21.810600	-12.687000	-19.182000
-25.251900	-39.611600	-25.514700
-16.627100	-34.903100	-15.862100
0.561839	-35.291600	-8.968230
19.911800	-35.296300	-14.819800
31.481600	-38.660400	-29.349300
19.474200	-37.027000	-16.940700
0.617741	-36.880800	-11.092600
-17.545900	-36.903800	-17.925300
-16.608400	29.742400	-28.131900
-32.360600	38.927400	-25.578400
-49.893700	34.548100	-39.363900
-36.446500	26.288800	-31.560900
20.199400	31.585900	-28.972700
32.440500	40.707900	-25.633000
53.449400	33.746800	-41.433500
37.464400	27.599800	-30.380600
-20.395800	49.798000	-17.478400
-32.101700	52.894400	-20.989500
-47.382300	51.001400	-29.526300
18.358900	49.622300	-19.351100
32.929800	54.791000	-21.981600
46.225500	49.526800	-28.587400
