ply
format ascii 1.0
element vertex 26
property float x
property float y
property float z
end_header
-0.506779	-4.293240	0.229955
-1.378830	-14.324200	-6.886140
-20.736400	-10.579400	-12.301500
22.644900	-10.108200	-21.046900
-29.594100	-38.957900	-28.795000
-16.889700	-38.597300	-16.129600
1.810800	-39.269000	-10.671100
21.255200	-38.658800	-17.042000
39.082700	-38.431300	-30.856300
20.846200	-40.231600	-20.078100
4.790200	-40.207600	-14.612900
-18.346700	-40.139200	-19.097900
-21.786200	30.936300	-30.691900
-35.771800	37.143100	-25.999700
-51.614400	30.790500	-36.302000
-36.189600	22.499700	-32.587000
16.785400	33.649500	-29.034200
32.553800	41.566000	-23.931100
53.311700	36.548800	-36.047300
38.516600	28.082200	-30.204200
-21.813600	47.938300	-19.851900
-40.641800	52.226200	-24.531400
-53.120400	47.096900	-31.728300
18.046800	49.358700	-20.320100
34.508900	54.961000	-21.361700
54.557600	51.331100	-35.063700
