ply
format ascii 1.0
element vertex 26
property float x
property float y
property float z
end_header
1.313260	-2.363210	0.119967
-0.882322	-12.865400	-10.648300
-23.272400	-13.213900	-18.019300
26.709900	-8.459190	-20.973500
-29.189300	-36.307400	-21.919900
-12.507400	-33.870700	-9.433720
1.338670	-34.193200	-4.763540
16.600400	-33.982500	-10.270000
32.309900	-38.866900	-25.450900
15.924900	-36.550400	-11.562200
-0.699653	-36.352900	-7.066620
-15.124000	-36.170900	-12.318500
-20.826700	33.478400	-27.225400
-33.950600	40.144200	-22.933700
-54.888000	36.009400	-41.953300
-38.486500	25.980700	-28.543800
19.706900	32.001200	-26.289800
34.596500	38.605500	-21.348200
50.870300	34.490300	-34.705000
33.852800	24.484000	-26.555300
-22.743200	50.952600	-17.217200
-36.399000	56.026400	-20.557300
-54.024500	53.471900	-35.108200
22.674700	49.542200	-16.871200
38.690700	56.545300	-20.922800
57.271200	51.534800	-35.158300
