ply
format ascii 1.0
element vertex 26
property float x
property float y
property float z
end_header
1.179420	2.530640	-0.237836
0.698602	-6.910300	-3.484010
-17.386600	-7.976860	-9.066990
21.329800	-7.937440	-12.461400
-21.857600	-35.790100	-22.817400
-11.220100	-33.713300	-12.767400
3.741610	-32.522100	-6.753670
19.404900	-30.500800	-11.337200
29.893100	-31.234600	-20.409100
18.713000	-32.724800	-13.313600
2.077400	-34.601500	-10.103400
-15.377900	-35.913500	-19.149200
-20.143800	27.969500	-23.756700
-35.438900	34.124200	-20.158400
-52.158300	29.667600	-33.334000
-36.236600	23.449400	-25.084500
19.715200	31.096900	-22.617300
32.313500	39.320300	-17.889700
50.553800	33.802700	-31.386100
33.354700	27.507400	-23.457300
-15.627600	41.163700	-13.471700
-33.884200	44.016500	-15.991700
-46.662100	41.930400	-22.546700
19.732300	44.351200	-14.904100
34.822500	50.688900	-16.590500
53.529700	48.111100	-29.766500
