ply
format ascii 1.0
element vertex 26
property float x
property float y
property float z
end_header
0.314042	-0.963837	0.071539
0.517386	-10.372600	-11.085800
-17.046800	-6.967390	-15.188400
21.363000	-8.914130	-17.295100
-26.636900	-32.573200	-23.313200
-16.942100	-29.453800	-15.310600
0.886614	-27.941500	-7.849250
18.958200	-30.017500	-13.563500
31.349800	-35.726200	-25.747000
17.891500	-32.859500	-16.771700
-0.276253	-31.069400	-9.933440
-19.024500	-31.555600	-18.819400
-16.526000	31.879400	-23.305400
-32.073100	43.457400	-20.300000
-48.363500	36.461600	-32.437700
-36.804600	29.386900	-26.146200
21.957800	31.925900	-25.340500
34.632300	40.198700	-21.486900
54.535300	30.826000	-35.256900
37.751300	25.551600	-25.878800
-12.548700	47.944100	-14.889600
-29.326500	57.397800	-15.680100
-43.217100	53.450100	-24.079300
26.191200	48.888200	-16.245200
38.898900	53.733400	-19.242200
53.518600	49.804900	-30.190200
