ply
format ascii 1.0
element vertex 26
property float x
property float y
property float z
end_header
-0.897335	0.251150	-0.114159
-0.737923	-10.463700	-9.897610
-20.141500	-9.317960	-16.446100
20.871200	-10.022900	-17.621300
-23.914700	-33.201000	-16.849100
-14.139700	-30.653400	-12.290400
1.385370	-29.610200	-6.498360
16.960300	-30.809300	-12.261900
25.823200	-34.155900	-18.584700
15.150600	-33.268500	-15.696800
-0.751476	-31.624100	-9.837700
-13.945900	-33.417800	-13.987400
-17.935000	27.350700	-25.385900
-35.306900	39.380900	-22.472000
-54.425800	30.366600	-40.005900
-36.012900	23.745000	-25.992700
17.314900	25.966300	-26.248200
34.673200	36.065200	-21.735500
55.082300	25.681600	-38.599900
37.223500	20.421100	-25.632600
-17.262100	43.685900	-17.630400
-38.229000	49.721800	-21.799600
-54.970300	46.337600	-38.228400
21.235900	43.751900	-18.543600
37.647900	48.608300	-21.566300
56.104000	43.038200	-36.693400
