ply
format ascii 1.0
element vertex 26
property float x
property float y
property float z
end_header
0.457824	2.180560	-0.206491
0.393106	-9.187890	-6.334380
-15.100300	-11.300400	-12.683500
19.310100	-9.403390	-14.620700
-23.073700	-35.969200	-19.315000
-11.416700	-31.482700	-8.997880
1.794200	-30.048600	-6.541150
18.201200	-29.743600	-10.275900
28.617400	-32.850000	-21.173100
17.067800	-32.713300	-12.123400
0.948038	-32.572800	-8.281060
-13.888700	-34.917700	-12.108100
-14.604900	29.772700	-24.192300
-30.745100	38.958700	-20.722700
-48.796300	31.474700	-33.814800
-33.006500	25.285200	-24.207500
18.117500	30.200400	-23.562100
32.491700	39.805000	-20.182500
48.858500	32.837000	-32.991200
33.299400	26.612900	-23.240100
-15.421500	45.247400	-17.028000
-31.126900	49.974500	-20.273000
-44.975100	47.682700	-28.258700
18.634600	44.426800	-17.593600
30.493300	49.291100	-18.094400
46.231700	46.327100	-28.387600
