ply
format ascii 1.0
element vertex 26
property float x
property float y
property float z
end_header
-1.363430	1.553490	-0.297296
-0.233728	-7.949060	-4.351910
-18.657800	-5.131530	-9.261950
17.197000	-8.359080	-11.364600
-23.311300	-34.243100	-19.794400
-15.268900	-31.546700	-14.518900
-1.052930	-29.876600	-7.897200
11.462100	-29.386700	-11.278400
24.221900	-35.735500	-20.782700
10.240700	-32.094700	-14.108300
-1.576810	-31.757200	-11.363900
-17.869800	-34.608700	-18.479000
-19.131600	26.666200	-24.831500
-35.116300	35.241700	-20.762800
-51.914200	28.670000	-36.056500
-36.317300	21.605500	-25.636400
18.982500	26.353500	-24.414600
32.900200	33.337300	-18.752700
50.712800	26.007400	-32.255600
34.241300	21.883800	-23.241600
-19.113100	44.844300	-15.092100
-34.615500	49.503000	-17.573000
-48.026200	47.677500	-27.657300
20.352800	42.813900	-16.650000
34.020300	47.686900	-16.954400
50.792200	45.579400	-27.813900
