ply
format ascii 1.0
element vertex 26
property float x
property float y
property float z
end_header
0.210285	1.437830	-0.040069
0.133572	-9.481030	-10.386100
-18.122100	-8.869750	-15.527400
19.907100	-9.514800	-17.387500
-22.717400	-31.956300	-17.962000
-14.108400	-30.288300	-13.961800
-0.752846	-28.588500	-7.873250
10.026400	-28.250300	-10.281900
23.693000	-32.124100	-18.461100
9.988750	-30.377300	-13.680500
-3.361670	-30.594000	-11.498500
-16.933500	-33.223700	-18.220400
-19.353300	28.477300	-23.954700
-34.253800	34.341800	-20.091800
-51.811000	29.915000	-36.638600
-36.376100	24.390500	-25.217800
20.286000	27.619400	-24.603900
34.647200	34.007800	-19.448100
51.053300	27.824400	-30.732200
36.944100	23.493400	-23.985700
-17.344400	47.660100	-13.977300
-33.345800	51.899500	-17.495200
-46.485400	48.801600	-26.402800
22.079400	44.451400	-16.635900
36.074800	49.446300	-17.981900
52.926000	46.303200	-29.786300
