ply
format ascii 1.0
element vertex 26
property float x
property float y
property float z
end_header
-0.091078	-2.876330	0.436384
-0.528760	-13.637200	-7.053490
-14.591300	-10.163600	-16.124900
20.021500	-8.913760	-16.215500
-27.005900	-34.235900	-26.659300
-14.815400	-35.671600	-17.351900
0.228837	-35.887800	-12.133700
15.458800	-36.262500	-13.300700
27.291400	-36.133100	-22.256300
14.077600	-38.111100	-14.663600
-0.381730	-37.809300	-14.031800
-20.490900	-37.087900	-24.484600
-15.658400	31.854200	-25.580400
-32.963500	40.785900	-27.206300
-48.300400	36.886500	-38.419800
-33.477400	28.156300	-29.465600
18.949600	36.437400	-27.238100
33.524300	43.901000	-24.920800
47.503000	39.319600	-35.004300
34.451400	32.792300	-28.176400
-21.376600	51.691200	-17.683700
-36.242400	56.221700	-24.684800
-47.356800	53.566000	-32.009200
19.797100	54.132700	-17.899300
31.975600	57.177100	-20.819700
49.347300	54.954000	-31.316600
