ply
format ascii 1.0
element vertex 26
property float x
property float y
property float z
end_header
1.088830	-4.244030	0.634873
-0.088695	-15.315200	-9.782830
-17.789500	-13.337000	-17.925000
17.769200	-14.816800	-19.044200
-25.319800	-36.906900	-19.120300
-18.327600	-32.999200	-16.244800
-3.411080	-32.501700	-9.410020
14.457600	-32.882100	-14.327300
24.685400	-39.360400	-21.612000
14.619000	-34.428800	-14.783500
-4.817300	-34.331500	-10.902700
-22.557200	-35.493300	-21.235700
-17.868800	24.712500	-27.111600
-36.722500	34.986300	-24.474900
-55.729600	26.724900	-40.259800
-36.516500	19.494200	-28.858600
18.236000	25.022100	-28.680300
33.693200	35.662300	-26.522100
52.970400	24.127900	-40.472100
33.434400	21.705000	-28.652800
-14.775000	41.189600	-20.851500
-35.740100	46.273700	-23.274600
-54.813500	42.108300	-34.421100
16.149300	42.416200	-22.520200
34.539600	45.618400	-24.766400
55.134600	40.448400	-38.411600
