ply
format ascii 1.0
element vertex 26
property float x
property float y
property float z
end_header
0.294391	-0.013527	-0.051126
0.043137	-10.984900	-9.480150
-16.980300	-11.357100	-16.335700
19.623800	-10.186700	-16.507000
-22.856500	-36.264800	-18.932500
-16.380100	-34.003300	-13.901500
0.924039	-32.810800	-6.191390
15.362000	-32.911700	-10.494500
24.332400	-36.791500	-16.591200
14.247000	-35.278500	-11.899300
-0.272091	-35.454400	-7.972190
-14.628100	-36.455300	-13.118300
-17.662500	28.764800	-25.121700
-31.694000	34.760900	-20.246500
-48.217800	30.908300	-34.819200
-32.633200	24.868600	-25.726200
19.967800	30.882900	-26.975900
34.734600	35.359100	-20.721400
52.366100	29.194800	-33.418400
35.030400	23.980400	-25.272000
-16.489000	45.249500	-16.857700
-29.743500	50.670400	-18.132100
-45.509500	48.594700	-24.725500
18.917100	43.636500	-16.968000
32.611500	48.970800	-17.713800
45.508900	48.701800	-24.344400
