ply
format ascii 1.0
element vertex 26
property float x
property float y
property float z
end_header
0.827210	-1.773980	0.270685
1.076080	-12.313800	-5.631080
-15.276300	-13.939500	-19.141700
17.670900	-15.276500	-22.450500
-29.956400	-43.865200	-29.512000
-20.697300	-43.839800	-27.737300
-1.163120	-40.853700	-14.496700
16.731500	-41.404900	-18.722300
26.894400	-45.054100	-28.455800
14.488500	-49.627400	-24.151100
-1.285090	-50.710400	-20.233400
-17.938400	-49.308000	-25.414800
-17.523800	29.753700	-33.369700
-29.234900	36.733100	-32.778000
-43.181300	24.721700	-42.350600
-28.761200	22.591200	-34.615100
18.992200	27.670200	-34.709000
31.669000	35.104000	-32.501800
45.922700	24.841800	-40.971000
30.126900	20.985100	-35.297500
-14.067900	47.294300	-27.365300
-26.343200	50.616100	-28.600700
-40.364700	45.759200	-35.405200
18.236600	45.742800	-26.940800
29.707900	49.730600	-26.846700
41.849000	45.413600	-33.118900
