ply
format ascii 1.0
element vertex 26
property float x
property float y
property float z
end_header
-0.462015	-0.272015	-0.042239
-1.725990	-9.853660	-3.988860
-16.908100	-9.645550	-13.821200
18.888400	-11.039100	-14.828200
-20.987800	-31.182200	-17.155100
-13.560500	-31.934500	-14.259800
1.143670	-30.996200	-7.976790
11.035800	-31.670500	-10.561600
20.550700	-33.131100	-14.735700
9.769850	-34.207200	-12.665900
-1.674300	-33.747900	-11.660100
-14.941500	-34.767500	-17.379200
-20.340600	30.513500	-23.526900
-34.356200	38.629200	-21.855400
-51.557800	33.139400	-36.054600
-38.032200	26.212500	-25.854200
16.827300	33.517500	-22.935400
30.741200	39.796600	-20.039400
46.325000	33.316700	-28.894500
30.978800	29.184300	-22.148700
-18.612300	51.595000	-18.822400
-33.045600	54.936000	-21.710100
-45.132600	52.300600	-28.697600
16.166000	50.719500	-18.583400
28.512300	54.601600	-19.107700
45.723300	51.774600	-27.949500
