ply
format ascii 1.0
element vertex 26
property float x
property float y
property float z
end_header
-0.415666	1.462650	-0.335883
-0.917466	-7.730400	-5.355210
-16.854000	-6.445490	-10.831000
17.045100	-7.851930	-15.403600
-24.394000	-32.394300	-19.631000
-15.403500	-29.971400	-12.758900
0.355926	-28.828700	-5.917470
14.354600	-28.678600	-11.016800
25.289400	-31.594700	-19.817200
13.382400	-30.883100	-12.894500
-1.179590	-31.537500	-8.337200
-18.563800	-32.935600	-17.110100
-18.908700	31.313600	-23.917400
-33.018700	39.251500	-20.964600
-48.820900	33.354300	-31.654900
-33.673600	26.190100	-25.192200
13.206100	32.150500	-23.402700
30.770300	39.175700	-19.860800
48.381700	32.900000	-31.353400
31.000100	27.419100	-21.933300
-18.727800	46.929700	-13.388300
-33.913200	50.826300	-18.621600
-48.949300	48.461200	-28.135400
15.292000	45.692800	-13.316100
29.156000	50.996700	-16.543800
48.860500	47.248900	-29.101700
