ply
format ascii 1.0
element vertex 26
property float x
property float y
property float z
end_header
2.048500	1.955250	-0.495803
0.846529	-8.284040	-4.476020
-17.784700	-6.976670	-15.844400
20.890600	-8.700930	-15.714100
-27.780700	-32.954700	-23.926200
-15.981800	-31.525300	-15.577800
0.058587	-29.823800	-9.449990
17.075900	-29.608300	-11.971300
30.784800	-32.558700	-21.969800
16.460400	-32.456000	-13.916500
0.524814	-32.689500	-11.205500
-19.273600	-34.804300	-20.056800
-17.422300	32.473300	-30.304000
-32.109400	38.602600	-26.268600
-49.455700	33.910800	-39.485900
-30.672200	28.302300	-29.495700
20.197500	34.687700	-28.903200
32.086000	41.227300	-25.206600
46.207200	36.379200	-33.664500
34.802600	31.012300	-28.607000
-21.681200	47.934500	-20.804800
-34.664300	50.681900	-25.048000
-46.491700	48.169700	-30.764900
19.456200	48.670500	-19.544600
33.145100	53.553700	-22.976900
51.060500	49.729600	-32.266300
