ply
format ascii 1.0
element vertex 26
property float x
property float y
property float z
end_header
-0.435570	0.056681	-0.115665
-0.901133	-8.195460	-4.082740
-17.623400	-5.276450	-12.888400
17.526600	-6.344210	-17.629200
-20.992800	-27.004500	-16.948500
-13.405100	-26.313100	-13.527300
-0.944654	-26.182100	-9.004210
11.360500	-25.981300	-11.920700
23.784600	-28.957200	-19.858400
10.313900	-28.261300	-13.679200
-1.050600	-28.036400	-11.907900
-14.637900	-29.176200	-16.265400
-19.018000	28.818600	-24.128400
-35.513300	34.962700	-21.424000
-50.676100	28.898200	-35.436900
-38.024700	23.002400	-26.109600
15.722500	29.715100	-24.751500
30.385400	35.800300	-20.208000
48.996300	28.425000	-33.853200
31.664700	22.595800	-23.731800
-20.743600	44.032400	-18.875200
-34.316300	46.473300	-22.260700
-45.583500	43.312600	-28.144300
18.888100	44.881300	-18.562400
30.893700	49.436800	-20.831100
47.340700	45.678800	-29.613000
