ply
format ascii 1.0
element vertex 26
property float x
property float y
property float z
end_header
-0.328419	2.162860	-0.354937
-1.630320	-7.976640	-6.041900
-14.555100	-7.516430	-9.096770
13.853700	-8.406360	-8.507860
-22.759900	-32.512900	-14.220000
-16.342000	-29.658300	-10.737000
-3.707660	-26.961400	-3.862070
7.945690	-27.721000	-5.188880
16.501000	-30.532900	-8.606590
7.481680	-31.208300	-8.884120
-4.183740	-30.817000	-6.590330
-17.453500	-33.150100	-12.428000
-15.412300	24.947000	-20.421900
-30.046300	35.303200	-17.450600
-46.539100	29.421000	-31.158400
-34.555900	20.716800	-21.600100
15.776700	27.046300	-20.038100
28.935100	31.475200	-16.723600
45.732900	24.608100	-27.182900
29.932900	20.419300	-18.742700
-16.720500	44.651800	-11.187100
-29.810400	48.928000	-15.892300
-41.994700	46.681100	-23.452800
17.404300	42.312700	-11.214400
30.071700	46.447700	-15.188000
45.136600	42.360300	-22.926200
