ply
format ascii 1.0
element vertex 26
property float x
property float y
property float z
end_header
-0.848696	0.668400	-0.180838
-1.964100	-8.499820	-3.177870
-18.193200	-7.446460	-11.994500
18.211800	-6.094020	-12.151400
-29.974900	-30.888800	-22.056700
-15.347800	-28.635600	-13.614500
-0.260301	-27.442500	-8.426750
15.457500	-29.116900	-14.051700
29.428600	-29.061600	-20.469100
17.501200	-32.524500	-17.310500
-1.568420	-30.878300	-9.506970
-19.210800	-31.227900	-17.954500
-22.144400	29.313400	-28.063100
-35.318000	35.422300	-25.235800
-49.184500	29.293500	-36.389800
-36.639500	23.395800	-29.872100
20.508800	31.100100	-26.709600
32.244800	35.257600	-23.007000
45.953600	29.517000	-32.688800
32.326400	26.300000	-26.719400
-21.873600	47.692300	-18.462200
-37.886700	52.030300	-23.565300
-50.613300	49.881600	-31.654500
15.610600	49.405300	-15.652200
31.260000	55.192000	-20.808800
45.315500	51.094200	-27.074300
