ply
format ascii 1.0
element vertex 26
property float x
property float y
property float z
end_header
-0.423071	1.612140	-0.175774
-0.558555	-8.733030	-9.797050
-15.976000	-10.444100	-14.390900
17.060800	-8.589650	-14.487900
-24.485800	-35.134500	-20.276200
-15.625500	-32.518700	-14.163200
-0.125656	-30.083200	-9.057170
12.262600	-30.458900	-10.775400
21.331300	-32.044700	-15.680900
10.804500	-32.764900	-12.382500
-1.726440	-32.611900	-11.406100
-16.348200	-35.414400	-16.285300
-21.276300	30.545700	-27.039400
-40.103100	39.337000	-22.790100
-56.239000	32.730200	-35.767000
-39.713700	26.123400	-26.474400
17.196600	34.374800	-26.265500
33.121900	43.884700	-20.825200
51.559700	35.798800	-31.017500
35.016500	26.989100	-24.826400
-20.343100	53.635000	-16.435900
-40.390900	55.930600	-21.590100
-51.298300	51.241100	-28.495900
20.917700	54.112300	-16.485900
37.788400	60.417600	-20.053700
52.378500	56.404500	-30.050600
