ply
format ascii 1.0
element vertex 26
property float x
property float y
property float z
end_header
-1.978150	-1.686450	-0.060753
-1.758910	-12.748600	-10.046500
-15.479200	-12.035900	-15.256900
17.784900	-10.496700	-13.162300
-27.629800	-40.926400	-29.086200
-17.291000	-37.701200	-19.478500
-0.403457	-35.214000	-10.950500
14.606900	-35.316100	-14.921500
26.583300	-38.389300	-23.615000
14.823700	-38.325300	-17.674500
-2.344810	-37.640400	-13.605700
-19.485000	-40.080100	-23.679300
-19.430800	29.177700	-30.827900
-35.863400	35.522600	-28.324700
-53.241000	29.329000	-43.368500
-37.900800	22.219500	-32.571900
20.155300	30.967000	-29.490800
34.693300	36.789100	-26.836200
50.052800	29.093500	-38.591100
36.119100	23.111700	-30.888100
-20.981500	47.280000	-22.435100
-37.440000	50.544200	-26.564300
-48.948100	45.378700	-33.819800
19.681800	47.705300	-22.221700
33.052800	51.191100	-24.586400
46.189600	47.706200	-29.665500
