ply
format ascii 1.0
element vertex 26
property float x
property float y
property float z
end_header
-1.819500	-0.526186	0.059815
-2.362070	-9.942920	-8.386450
-19.428800	-10.652700	-20.093700
17.692600	-9.484710	-17.097800
-24.541400	-39.547800	-22.306000
-13.741600	-36.301400	-12.981400
-1.189750	-36.041500	-8.283270
11.395900	-36.242600	-10.725500
23.932000	-37.353200	-18.142600
11.498300	-38.881300	-12.654000
-1.732230	-38.810100	-9.632700
-18.034500	-39.656500	-17.760200
-20.371500	30.959900	-31.488300
-35.404000	36.814900	-29.432700
-54.325500	32.372800	-45.670100
-38.010600	25.055400	-34.599200
17.652500	33.223000	-30.698100
33.804500	39.299300	-26.594400
52.552200	33.064400	-41.594000
33.800200	28.107000	-30.258400
-18.750600	45.653900	-22.748300
-35.496300	51.640000	-26.848700
-48.234600	47.529300	-34.003600
20.211200	47.281700	-21.476500
35.042500	51.912000	-25.603500
53.778200	49.934400	-37.966800
