ply
format ascii 1.0
element vertex 26
property float x
property float y
property float z
end_header
-0.713522	-3.767030	0.473937
0.030308	-12.863700	-8.673250
-19.329000	-13.128500	-18.966300
19.727600	-13.194800	-19.584200
-24.888000	-39.588300	-21.797100
-13.904900	-37.883200	-12.255300
0.423944	-35.186000	-7.344170
17.929900	-38.459000	-14.036700
26.081100	-40.003700	-21.666200
16.244300	-42.093700	-21.224100
-3.458170	-43.858400	-17.806500
-19.189400	-43.105300	-24.516100
-20.301300	29.202200	-30.475000
-34.200800	36.793700	-28.195800
-50.236100	27.558800	-43.200100
-36.043300	24.660100	-31.512900
18.179900	30.536200	-29.833900
32.556100	40.826200	-27.639100
52.589600	28.009600	-42.627600
33.043200	26.324500	-27.914800
-18.368200	47.521900	-23.438700
-33.746700	51.760900	-24.930200
-47.704500	49.506300	-34.788000
20.459400	47.981700	-23.539000
34.047600	50.886800	-25.091100
48.410200	48.287500	-32.618000
