ply
format ascii 1.0
element vertex 26
property float x
property float y
property float z
end_header
-0.374180	-1.389890	-0.082999
-0.448844	-10.730400	-8.566470
-16.868100	-12.774700	-18.612000
19.250600	-11.515800	-18.874000
-30.603000	-35.299600	-32.227000
-18.435100	-31.930600	-21.658900
0.291472	-31.578900	-13.624000
16.637500	-30.566400	-16.647700
29.047100	-32.239700	-25.854700
15.922300	-33.047200	-20.088100
-0.253867	-33.291200	-15.729500
-21.134900	-35.762900	-29.112100
-18.624000	28.570400	-29.927600
-35.736800	34.219100	-27.055600
-54.516400	28.871900	-46.998300
-40.167900	22.328300	-32.453900
17.290500	30.317900	-28.957300
31.129000	36.263400	-24.747100
51.178100	29.036600	-40.114100
32.453200	24.477500	-28.395100
-23.760600	45.750500	-22.980900
-37.530600	48.014600	-27.154600
-49.243200	44.367800	-34.741000
19.475100	46.070400	-21.984500
32.866100	49.453900	-24.545600
47.363600	46.323200	-31.809600
