ply
format ascii 1.0
element vertex 26
property float x
property float y
property float z
end_header
-2.353600	0.594984	-0.289781
-2.075170	-12.454200	-10.718400
-21.079700	-11.841900	-14.941000
20.815100	-12.244300	-14.213600
-33.980800	-37.406400	-34.601800
-16.497500	-35.897900	-18.076200
0.097184	-35.044500	-11.746100
18.134300	-35.485900	-18.548400
29.236800	-37.753700	-30.618500
16.896800	-37.210100	-20.311300
-1.878420	-37.331500	-15.198800
-23.572700	-38.840400	-28.268200
-19.503200	28.208700	-29.529700
-36.712400	36.434100	-26.509400
-54.523200	31.846500	-42.722500
-39.359600	22.622400	-31.598700
17.683300	27.254800	-29.525200
32.836000	35.741800	-24.608100
52.176200	31.429600	-38.336500
36.147700	25.272100	-28.524100
-22.194100	46.722100	-17.259500
-38.338900	51.141900	-21.682700
-50.413100	48.087000	-31.621900
17.400200	44.890900	-17.191300
31.131200	50.474400	-17.890400
47.267900	47.302600	-29.681600
