ply
format ascii 1.0
element vertex 26
property float x
property float y
property float z
end_header
-1.547860	1.838110	-0.286831
-0.696677	-9.902520	-9.483920
-19.595800	-11.912100	-17.334000
21.329700	-9.443770	-15.818900
-31.702900	-39.060500	-24.084600
-19.825900	-35.509500	-12.636200
1.716780	-32.024300	-5.230740
23.585800	-33.482300	-13.279400
34.057100	-36.132600	-23.929800
23.224400	-36.886700	-14.386200
0.330093	-35.776200	-7.354320
-18.572600	-38.579000	-12.399000
-24.538800	28.111100	-30.613000
-40.235600	33.185800	-26.208600
-64.326100	28.681500	-47.427900
-47.560400	22.363700	-35.034500
16.516800	32.014100	-29.876900
37.565500	35.011000	-24.849600
55.733300	29.653000	-38.647100
35.805300	23.629200	-30.095600
-26.989800	45.114200	-20.495200
-41.893100	47.546000	-24.300700
-58.420700	45.073500	-31.628600
16.718100	44.673500	-17.111800
36.532200	51.358900	-20.751200
57.292800	44.530500	-31.255200
