ply
format ascii 1.0
element vertex 26
property float x
property float y
property float z
end_header
-0.033116	1.435380	-0.040943
-0.041524	-7.927110	-4.818070
-18.673500	-9.510700	-18.449300
17.086900	-9.244490	-16.157800
-27.331000	-31.585400	-18.472500
-14.685600	-27.580200	-9.090820
-1.488220	-25.002700	-6.175160
17.037600	-26.892800	-9.327330
26.662800	-31.816400	-17.501000
15.195800	-29.324900	-9.617420
-1.952630	-28.747400	-6.375620
-16.266300	-31.251800	-10.709100
-22.211800	26.727200	-29.150100
-37.437900	34.617200	-25.279500
-55.643900	29.876100	-40.002100
-41.473500	21.324300	-30.974200
16.579600	30.309000	-28.448500
32.896600	34.875500	-22.336400
50.120400	28.724600	-34.318700
34.032300	24.436800	-27.609600
-17.233200	43.519200	-16.480500
-32.903600	47.568200	-18.076800
-48.245200	45.363500	-25.972100
11.928700	43.457900	-15.868900
26.352800	46.313900	-14.613700
48.065000	44.013700	-25.851800
