ply
format ascii 1.0
element vertex 26
property float x
property float y
property float z
end_header
0.200858	0.833564	-0.079073
-0.282979	-9.886230	-4.846130
-15.958000	-7.777470	-13.348900
19.580400	-6.676790	-15.513800
-28.284900	-32.766300	-22.177600
-15.941500	-31.360000	-14.311900
0.394315	-29.688100	-8.079190
18.980600	-29.516300	-12.872900
30.041600	-29.200200	-19.727200
19.178300	-32.492100	-14.593200
1.212760	-32.762900	-10.042800
-19.349800	-34.325900	-18.282400
-20.779200	31.852800	-33.008300
-38.528400	36.300100	-30.288000
-51.551500	30.976900	-42.292400
-37.811300	24.445500	-34.596900
17.417300	30.877900	-32.279500
34.053600	38.358500	-27.457900
51.644400	33.358500	-41.808000
35.076100	27.153800	-32.186600
-21.910400	45.808300	-21.046800
-35.372600	48.050200	-24.684200
-50.239600	44.021100	-33.427100
16.387400	46.719300	-21.213500
30.306800	50.424200	-22.238600
47.517000	47.526900	-31.530900
