ply
format ascii 1.0
element vertex 26
property float x
property float y
property float z
end_header
-0.306639	1.062360	-0.074778
-0.746238	-9.885650	-10.342700
-19.513100	-10.220000	-13.056400
23.417300	-11.472900	-16.214700
-23.513200	-35.755100	-14.744300
-15.590700	-33.783400	-8.928590
0.772833	-31.880800	-3.556270
20.636400	-34.339700	-11.828300
24.688100	-36.032800	-15.967200
16.622400	-35.639100	-12.202600
-1.235430	-34.531700	-7.570780
-19.071800	-37.301700	-14.219500
-22.959100	28.210600	-27.698800
-35.439100	34.279700	-23.223500
-53.378800	30.032300	-39.719500
-36.409700	25.930900	-26.915500
22.278500	28.222200	-28.045600
34.232100	31.590700	-22.721900
52.396600	28.026500	-36.155700
35.055300	22.345200	-28.795400
-16.196400	43.203500	-14.458200
-35.399700	44.600100	-19.831600
-51.148100	43.413400	-30.805100
19.125700	40.379900	-16.562500
33.611200	43.560000	-18.140400
51.439000	41.430200	-28.993800
