ply
format ascii 1.0
element vertex 26
property float x
property float y
property float z
end_header
0.947439	-1.302450	0.027891
1.280620	-12.982800	-12.020700
-13.695300	-14.599800	-15.741000
20.403000	-13.207300	-15.885900
-23.175900	-46.527700	-21.910100
-12.129600	-43.152500	-14.614800
2.860330	-41.836200	-9.704550
20.948700	-41.186100	-15.964800
29.968900	-43.364800	-22.997700
20.270100	-43.575900	-16.747400
2.470490	-44.174300	-11.318700
-12.445000	-45.633300	-15.721600
-16.625800	37.206500	-30.464000
-33.034600	43.710900	-27.816900
-48.946300	32.011400	-37.392900
-31.791700	30.707300	-29.566800
19.785900	35.599500	-29.392000
35.547200	42.893400	-25.589500
49.170300	33.270900	-35.049600
34.422800	30.603700	-28.551900
-15.477300	50.814500	-21.153500
-31.595300	54.255500	-24.214900
-45.140500	51.426700	-30.045500
20.236200	49.316700	-20.761600
34.152100	53.797100	-21.803500
46.521000	51.004800	-27.648800
