ply
format ascii 1.0
element vertex 26
property float x
property float y
property float z
end_header
0.388472	1.247650	-0.092147
-0.054602	-11.986200	-12.235500
-15.158900	-10.970400	-17.529600
20.454600	-9.654300	-20.938100
-27.460300	-32.462900	-23.423900
-12.507000	-31.940400	-11.183900
-0.358479	-32.226100	-8.319200
16.922200	-31.838200	-12.175300
30.391000	-34.723300	-23.668900
16.692800	-34.492000	-14.462300
-1.702890	-34.633500	-10.934100
-19.207600	-34.813800	-18.147800
-17.130000	29.711400	-33.685700
-36.029000	38.022800	-27.744000
-54.104500	29.693300	-46.220800
-36.326900	23.270400	-32.982700
18.273900	30.645900	-34.070500
34.884800	35.765000	-27.536400
54.227300	32.719400	-38.971100
37.020400	25.497600	-29.958700
-19.844100	45.524800	-22.063400
-30.561900	48.322600	-23.518200
-44.194300	46.602900	-28.217700
24.870400	45.458100	-21.410000
38.363000	48.354000	-23.796700
51.800400	45.113200	-31.416000
