ply
format ascii 1.0
element vertex 26
property float x
property float y
property float z
end_header
-0.520197	-0.926875	-0.022417
-0.550128	-12.107700	-8.524370
-18.612800	-11.905700	-15.280900
19.480300	-12.678400	-18.656700
-25.354700	-39.929200	-21.085300
-16.678800	-36.578000	-13.927500
0.548208	-33.980100	-8.094080
19.736800	-35.296500	-13.112500
30.349600	-40.511100	-23.935500
19.300700	-37.701100	-14.727900
0.441353	-37.665100	-9.121210
-17.248400	-39.310200	-15.278000
-19.374800	26.819100	-31.539700
-32.981400	34.022100	-27.980400
-50.211400	25.893600	-41.285000
-34.449900	21.686300	-32.155400
18.950800	27.674700	-30.135700
33.546400	34.453000	-27.608600
52.108100	25.976300	-42.963100
35.251500	21.611600	-30.033600
-20.354500	45.529300	-20.490400
-31.965200	46.382100	-23.548600
-44.450500	43.995300	-30.189500
16.958800	44.248100	-21.020900
30.760400	45.928900	-23.558400
45.213700	44.570200	-31.083700
