ply
format ascii 1.0
element vertex 26
property float x
property float y
property float z
end_header
-0.154997	1.149500	0.056747
0.173344	-9.699030	-9.747630
-17.996700	-9.828510	-13.869200
21.779400	-10.442800	-15.307200
-23.869900	-33.445900	-17.549200
-15.272500	-28.740600	-10.749600
-0.232128	-27.452100	-5.545170
14.772600	-27.814400	-8.285710
28.400100	-32.609100	-17.638500
14.927400	-30.807800	-9.874110
-2.026350	-30.276000	-7.985580
-15.599800	-32.231300	-11.745600
-17.908100	27.515500	-23.402200
-32.415900	33.371500	-17.398600
-53.067200	28.618500	-31.950200
-34.613100	20.934700	-23.646700
19.417900	29.286900	-23.962500
37.491100	36.849900	-18.269300
58.791800	31.459300	-35.156100
39.156200	24.447500	-23.654800
-14.444200	42.262300	-11.284700
-30.931100	46.491400	-15.918900
-46.816400	45.479600	-23.179200
20.755600	41.998200	-13.098700
36.837300	47.853500	-16.715700
53.989100	45.439600	-27.449100
