ply
format ascii 1.0
element vertex 26
property float x
property float y
property float z
end_header
-0.280458	0.601064	-0.111548
-0.645370	-10.453700	-8.962880
-18.486400	-11.899500	-16.796200
21.627900	-9.931400	-18.087700
-25.230400	-34.115300	-25.084900
-15.245600	-31.081100	-16.055600
1.145180	-30.503000	-12.092300
20.538300	-30.332500	-15.944000
30.446100	-34.955800	-26.919800
19.541100	-33.007900	-18.388700
0.539774	-32.695700	-13.974000
-14.983800	-33.549300	-17.293000
-21.193100	29.422600	-29.772200
-37.540600	38.484500	-25.011200
-54.579500	31.189900	-39.772200
-37.785700	24.043900	-29.815500
22.167800	30.266000	-28.459200
35.146400	37.444400	-22.733900
54.024600	32.494600	-37.817400
37.820600	26.705700	-28.742300
-22.061100	46.607100	-18.822100
-37.742900	50.601400	-23.384800
-50.124600	50.193400	-31.042300
21.365300	45.858400	-19.857000
34.986200	49.953800	-21.650900
49.306300	47.867500	-30.370800
