ply
format ascii 1.0
element vertex 26
property float x
property float y
property float z
end_header
0.406943	0.785980	-0.159782
-0.101534	-9.927850	-12.277400
-15.546300	-7.713170	-15.201600
19.882000	-7.749310	-19.457400
-24.708700	-28.918800	-20.754900
-20.105800	-24.508900	-15.423200
-2.711890	-21.338300	-7.796060
16.883000	-22.510400	-11.559700
23.643100	-28.313300	-17.627500
16.459200	-24.407200	-11.001800
-2.634180	-22.824800	-6.811970
-16.832000	-24.733000	-12.331400
-18.542500	30.889200	-25.757200
-32.456000	37.831100	-22.938900
-50.102400	31.008100	-38.614800
-33.445100	26.451800	-26.874200
20.686200	29.939800	-24.441000
31.883200	35.961600	-21.418300
47.711800	29.323600	-31.488800
33.547100	26.376200	-24.188100
-16.167800	48.274900	-17.815100
-32.948400	52.921800	-20.159500
-46.999600	51.038400	-29.702900
14.573600	46.554200	-17.913300
28.378500	49.524200	-17.413800
43.408900	46.866600	-24.744100
