ply
format ascii 1.0
element vertex 26
property float x
property float y
property float z
end_header
0.334156	1.531920	-0.157445
0.737631	-9.962730	-7.289300
-18.898500	-8.667520	-17.117700
22.721400	-7.925430	-18.926900
-25.855600	-35.825000	-24.000100
-18.509400	-33.630400	-18.374800
0.876684	-32.083100	-9.630270
17.922900	-32.331100	-14.066600
27.615000	-36.524800	-22.873300
16.335300	-35.848600	-17.759600
-1.586150	-35.311200	-13.935300
-20.937200	-36.659800	-22.763300
-16.717300	28.771500	-24.314300
-32.739600	36.688800	-20.637000
-52.329500	29.566800	-37.604200
-34.197500	22.825400	-24.722600
20.035900	29.749300	-25.272500
34.641400	34.894400	-20.802000
51.077500	29.190000	-31.308000
35.240600	25.447500	-21.914000
-14.767500	46.376000	-15.254700
-31.223900	51.869000	-19.378900
-46.198900	47.543700	-27.617200
18.927100	46.482400	-16.060400
33.394200	48.989600	-18.099400
49.568800	46.690300	-28.211300
