ply
format ascii 1.0
element vertex 26
property float x
property float y
property float z
end_header
0.742644	-1.179730	-0.079098
-0.104352	-9.423630	-6.488510
-19.221800	-9.222660	-15.823500
21.409700	-8.406520	-16.106300
-24.217100	-34.851700	-23.068900
-17.329900	-31.828500	-16.983900
-0.173651	-30.350300	-8.622190
17.989900	-30.445100	-15.658400
25.743500	-32.791100	-21.500200
13.808900	-31.932700	-16.390400
-1.549160	-33.175600	-12.031100
-17.274700	-34.453500	-19.147900
-21.568600	30.559800	-32.219500
-35.586200	36.654300	-29.229600
-50.914400	30.097600	-41.178200
-36.274900	26.099800	-33.886900
21.721100	31.848200	-31.062300
36.106600	39.641200	-27.676700
51.933100	32.746000	-38.547400
38.513400	27.843700	-32.104600
-18.990400	48.817900	-23.097600
-34.716800	53.649100	-26.335500
-49.759100	50.852300	-35.370100
20.276900	48.021200	-23.696800
33.064600	52.086600	-24.645900
47.497900	49.037700	-31.830200
