ply
format ascii 1.0
element vertex 26
property float x
property float y
property float z
end_header
0.183098	1.356230	-0.164678
0.589378	-9.722370	-8.219610
-17.730800	-13.798600	-17.159600
20.230400	-12.072400	-17.314900
-21.698300	-38.557400	-22.589700
-15.623100	-34.871000	-16.566000
0.053537	-32.824600	-9.641110
17.336600	-32.375600	-14.464000
24.958700	-36.448100	-21.070200
16.209000	-36.333900	-15.336400
-0.004383	-36.821700	-11.131300
-16.921800	-38.650600	-19.041500
-18.360500	26.631200	-25.677100
-34.167100	35.876800	-22.500100
-51.062300	26.059500	-36.115200
-34.364400	19.877200	-27.243900
19.014400	30.639800	-24.656700
33.330800	41.057400	-20.714300
52.324300	32.388800	-31.773800
35.142900	25.684900	-24.290600
-13.953900	43.609100	-19.722600
-34.710400	47.612200	-20.029700
-51.137200	47.819400	-29.409300
12.332100	43.702400	-16.433000
29.985300	50.513400	-18.608700
51.359000	51.453800	-29.197200
