ply
format ascii 1.0
element vertex 26
property float x
property float y
property float z
end_header
-0.979561	-0.315861	-0.174365
-0.184345	-9.329570	-3.468630
-19.134600	-7.966000	-15.072800
21.733900	-7.214070	-16.385100
-27.567000	-37.376300	-23.644900
-17.784800	-35.921000	-15.849600
3.959370	-33.209600	-7.058960
20.024500	-34.318900	-13.137400
32.697600	-37.651100	-27.151000
17.715800	-37.517400	-16.277800
0.285082	-36.561800	-12.219400
-19.506400	-39.057300	-19.551600
-19.890800	32.811500	-29.511800
-38.394400	38.562000	-26.219600
-54.798500	31.119800	-41.386600
-38.750600	27.328500	-31.536100
15.728200	35.471900	-27.820300
35.483100	41.990800	-23.837100
52.468000	36.614700	-37.046600
35.273200	30.020300	-29.341700
-20.550700	43.527500	-21.202100
-35.873400	46.166100	-24.636900
-46.804300	45.342200	-29.599700
15.838700	45.795900	-21.401300
31.645500	49.024400	-22.050100
47.921400	45.863500	-30.117300
