ply
format ascii 1.0
element vertex 26
property float x
property float y
property float z
end_header
-0.182474	-0.554721	0.010800
-0.740703	-12.211500	-8.399580
-18.735300	-12.654900	-19.703900
18.626400	-11.748300	-19.552200
-26.844800	-44.912000	-32.255900
-15.374600	-39.097800	-19.680700
1.901580	-37.297900	-14.204200
15.996300	-36.414800	-18.096000
28.800000	-39.836500	-28.192300
14.737900	-39.673600	-22.694400
0.481683	-40.606400	-18.661000
-15.186400	-42.366900	-22.829600
-19.238000	32.511000	-30.690200
-38.736700	40.600400	-27.830500
-55.032500	30.529500	-46.437100
-37.121800	26.070500	-32.277600
21.005600	33.299000	-28.533200
37.101400	41.230200	-24.849600
54.118400	32.018700	-38.198600
35.314300	27.325700	-28.823800
-16.440000	48.453700	-24.532700
-29.745200	54.528400	-25.754100
-46.082800	51.351700	-32.747200
19.776200	48.797000	-23.663400
34.383300	53.039400	-24.896100
54.862000	49.071700	-37.086800
