ply
format ascii 1.0
element vertex 26
property float x
property float y
property float z
end_header
-1.497930	1.097830	-0.134715
-0.030016	-7.953380	-10.320100
-21.418100	-10.325500	-15.633000
21.399100	-5.494340	-15.569200
-24.274800	-40.457200	-21.084600
-15.588900	-34.434900	-11.306100
0.075839	-30.069000	-6.478330
19.221700	-30.816300	-8.774720
33.176700	-35.764600	-20.684000
18.506600	-33.921600	-11.293300
-0.939821	-32.591800	-9.927070
-15.605600	-37.516600	-12.675100
-23.995300	31.445500	-25.060600
-43.636500	41.021900	-21.341700
-59.056200	31.649100	-43.162000
-43.283000	25.393700	-26.381100
15.462400	35.745400	-23.286800
31.829200	48.792200	-18.514400
50.134300	42.356900	-33.645400
34.835100	33.646200	-19.853300
-35.013000	55.702900	-16.174700
-51.680900	57.437200	-25.931600
-61.391600	49.348700	-37.257700
2.956280	56.439400	-12.541300
19.254200	63.238000	-13.344400
48.901900	61.681300	-30.649900
