ply
format ascii 1.0
element vertex 26
property float x
property float y
property float z
end_header
-0.583385	2.208350	-0.591027
-1.059260	-9.654030	-7.423380
-17.788100	-8.044010	-13.682300
20.974500	-8.203620	-15.571400
-25.482700	-36.901200	-24.582600
-13.018900	-32.050900	-15.018800
-0.102200	-32.378100	-9.531780
17.272900	-33.671700	-15.862700
24.698600	-37.399900	-22.447000
15.642200	-36.480600	-20.236100
-1.560360	-35.949800	-14.980100
-14.494200	-35.631700	-18.567100
-17.874100	33.358100	-27.033200
-35.743500	40.748600	-22.671300
-55.609400	32.076800	-42.039600
-36.749600	25.627300	-29.727500
18.163300	34.718500	-26.713800
35.127000	44.795200	-22.307500
51.972700	32.994300	-34.619000
35.319900	27.361500	-27.273700
-14.499800	47.292100	-17.284400
-31.554200	53.698100	-18.372200
-46.609800	51.535900	-24.913000
18.298700	49.221800	-15.234300
30.825300	53.862500	-16.626700
47.258300	50.966400	-24.153600
