ply
format ascii 1.0
element vertex 26
property float x
property float y
property float z
end_header
0.915112	2.605690	-0.359201
0.953466	-9.243250	-5.806650
-18.241600	-8.200140	-12.172800
19.691700	-7.628120	-10.853000
-28.834600	-37.662800	-21.088700
-15.797700	-33.837000	-10.026000
-1.038370	-33.103600	-5.446530
19.031500	-33.985600	-10.439600
28.008200	-37.223000	-19.040700
18.346700	-37.230500	-13.030800
-2.362670	-36.974100	-8.107990
-16.507700	-37.485300	-13.006500
-15.495600	32.804400	-25.525500
-31.477100	38.384300	-20.460100
-49.150400	30.885000	-33.326600
-33.722100	27.673400	-23.912200
19.468400	31.844200	-24.817000
33.569700	39.274900	-20.305100
47.606400	32.013000	-27.910600
33.470200	28.093300	-22.971800
-16.737200	48.683600	-16.034200
-30.369000	51.255900	-18.700800
-45.599900	49.501800	-26.427700
16.135400	47.816300	-16.208100
31.531700	50.329700	-18.477300
50.349000	49.187800	-27.666800
