ply
format ascii 1.0
element vertex 26
property float x
property float y
property float z
end_header
-0.051014	2.372820	-0.379278
0.716193	-12.101600	-8.201470
-18.231100	-9.537940	-18.786600
20.647400	-9.649670	-15.872400
-30.694800	-40.625400	-28.962500
-20.060700	-36.485100	-16.900800
-0.009031	-37.130300	-8.058480
22.935400	-35.909100	-15.512700
30.901300	-39.856200	-23.603300
19.648100	-39.440500	-15.547200
-2.253370	-40.731900	-10.948100
-23.483500	-40.663800	-23.759100
-20.121300	27.508100	-30.985600
-35.167800	35.479000	-28.935300
-53.165900	25.876300	-49.655500
-38.363300	18.971400	-35.186600
20.096200	31.162300	-31.771000
35.895800	37.649600	-28.118500
53.127000	28.871900	-41.064200
35.870500	23.906000	-31.264700
-11.530000	41.072600	-22.105200
-28.270200	46.486900	-23.666200
-42.608500	47.761300	-30.549900
21.043500	43.985300	-20.872800
36.264700	48.327400	-24.353500
51.102500	46.049500	-35.348900
