ply
format ascii 1.0
element vertex 26
property float x
property float y
property float z
end_header
-1.017170	-1.957780	0.379746
-1.462370	-11.019600	-1.298470
-23.319500	-6.248500	-15.849100
19.140900	-4.856260	-14.912400
-32.245200	-31.783500	-33.487700
-17.931600	-28.767600	-17.560100
-2.026280	-28.280600	-11.789600
16.441100	-28.178200	-17.217800
29.670000	-28.501400	-26.247600
14.887200	-30.205100	-19.107300
-3.772560	-30.997700	-14.411800
-18.481200	-31.519100	-19.295900
-19.666100	39.168700	-27.113400
-37.225300	43.006100	-24.621500
-54.505000	36.987200	-36.242900
-39.280200	31.594600	-28.839300
18.490000	37.335100	-26.505100
37.172500	44.107400	-21.969400
54.066800	39.502400	-32.102800
37.908700	31.999800	-27.621100
-19.192900	52.371700	-17.584000
-32.865500	56.071900	-19.332500
-48.825100	55.315200	-26.899900
18.519200	52.554300	-19.066100
33.174600	56.737300	-17.871600
49.305200	54.734000	-25.870200
