ply
format ascii 1.0
element vertex 26
property float x
property float y
property float z
end_header
-1.007120	1.631780	-0.460902
0.720806	-11.655700	-14.933600
-19.209900	-11.631700	-20.093100
23.031800	-6.898360	-19.692400
-26.679000	-42.934500	-34.670800
-14.139400	-37.609900	-22.051600
4.438330	-33.064700	-12.823500
24.100300	-30.747600	-19.090900
37.932500	-34.609800	-33.463300
23.501000	-33.611100	-19.361200
4.201980	-35.886200	-14.106000
-13.695000	-40.198400	-22.948800
-20.466700	29.666000	-35.957400
-39.316400	37.264200	-32.349100
-53.793400	27.398500	-48.018200
-37.030600	18.382200	-38.431200
15.700800	32.873400	-34.785300
33.110300	44.509700	-30.487000
50.509200	37.614700	-44.526400
34.890500	26.826100	-37.111400
-22.595000	48.199200	-26.429400
-43.100400	50.097300	-31.938400
-56.021500	43.374700	-40.607200
19.154500	54.483700	-26.687400
33.392200	57.985000	-29.836200
51.910000	53.903500	-42.456300
