ply
format ascii 1.0
element vertex 26
property float x
property float y
property float z
end_header
-1.342560	-0.087858	-0.168862
0.275027	-13.653700	-8.584660
-17.972000	-13.270200	-18.569200
19.365200	-13.301300	-18.915800
-25.331900	-43.993000	-25.396900
-15.258500	-41.598900	-17.748400
-1.913700	-40.595100	-9.923810
19.356100	-39.348700	-16.663700
31.848200	-45.074500	-30.648300
17.491900	-43.098200	-19.055400
-0.600836	-44.446700	-13.596000
-16.619800	-45.590500	-20.796900
-18.821900	27.908800	-36.074200
-35.005000	38.008700	-32.812300
-54.148400	27.311200	-49.131300
-35.582700	20.826000	-37.075000
16.242800	30.166200	-34.555100
33.783800	41.572700	-31.247100
52.719200	30.020000	-45.355700
35.198100	22.633000	-35.044700
-20.351400	43.659700	-25.853300
-39.165700	49.214400	-29.338700
-50.171500	45.958400	-36.070100
17.962400	46.236800	-24.696700
32.590800	49.965700	-25.265100
49.858500	47.705400	-34.997100
