ply
format ascii 1.0
element vertex 26
property float x
property float y
property float z
end_header
-0.934175	2.340720	-0.383310
-1.017180	-8.646620	-5.099060
-16.181500	-8.035460	-15.035700
18.898400	-7.974740	-14.451100
-26.429300	-32.270200	-29.740600
-16.659100	-28.742900	-19.273300
-2.416040	-28.768400	-12.715200
14.163600	-29.297400	-14.994700
26.512400	-32.704700	-22.792000
14.116300	-32.621000	-17.511500
-3.325400	-31.015600	-16.011900
-17.956500	-31.853000	-22.059800
-18.844600	30.027900	-31.348900
-34.263500	37.934600	-27.409800
-51.790100	31.193200	-45.226200
-35.006400	25.494300	-32.494600
18.133800	29.996300	-30.708800
34.478700	36.513600	-26.473900
52.781800	29.063600	-40.590300
34.670300	21.351400	-31.743300
-13.132200	43.539600	-20.822300
-29.706200	50.029200	-20.161900
-46.027100	48.613100	-30.105000
17.059900	42.988200	-19.734900
28.402400	46.471800	-19.661200
48.462600	46.270400	-29.495100
