ply
format ascii 1.0
element vertex 26
property float x
property float y
property float z
end_header
0.287514	-1.761020	0.039777
0.738637	-12.577700	-11.886100
-16.645000	-9.848530	-14.554100
20.326000	-10.429800	-20.057800
-24.558000	-40.469700	-29.459300
-15.003600	-37.499700	-18.823500
0.531938	-35.650300	-11.745500
17.844100	-34.630300	-15.666800
31.662600	-37.193200	-29.219300
16.795600	-37.930200	-18.919900
-1.205920	-38.252800	-16.002400
-17.496800	-40.135400	-23.652700
-20.639700	30.831700	-26.559200
-34.237900	37.339300	-22.548300
-53.007800	27.675900	-38.202100
-36.472700	24.063500	-28.935200
18.076600	32.619500	-25.990200
35.208600	39.943600	-21.593500
56.041600	32.423700	-37.922200
35.052500	28.118000	-27.041000
-17.867600	47.740200	-19.566400
-32.780800	53.374100	-21.689300
-44.914200	51.892300	-27.189000
17.237400	46.953200	-20.392400
33.740500	52.331000	-20.648700
51.828000	48.709600	-31.034800
