ply
format ascii 1.0
element vertex 26
property float x
property float y
property float z
end_header
-0.933789	2.474240	-0.601706
-1.004700	-9.123150	-8.659120
-18.517900	-12.371600	-14.423200
20.222100	-9.591500	-12.950600
-24.116500	-39.373400	-18.010000
-15.399900	-35.442800	-11.487600
0.559650	-31.938800	-8.332920
16.884800	-33.789200	-11.606500
24.454200	-36.821100	-16.449300
15.045800	-37.304300	-11.920800
0.108551	-36.220900	-8.685920
-15.256900	-38.522000	-12.748600
-22.762700	31.556800	-27.411600
-39.261300	40.004900	-24.219400
-58.569200	30.418800	-42.133600
-40.287200	24.217100	-27.830400
21.738600	34.261700	-26.618100
36.250100	42.981300	-22.223200
53.680300	32.799000	-32.978300
36.750400	27.818900	-25.867200
-25.288900	51.215500	-16.530600
-39.848000	54.687800	-22.215800
-52.263200	52.134600	-30.162100
16.938600	52.889800	-15.921800
34.000400	58.628000	-18.779500
52.159300	53.500900	-29.969600
