ply
format ascii 1.0
element vertex 26
property float x
property float y
property float z
end_header
-0.260094	1.557560	-0.261234
0.586691	-10.637500	-7.161280
-16.831600	-9.928970	-11.769200
22.072200	-8.972440	-18.489100
-24.619600	-34.124600	-17.508400
-14.700100	-32.361200	-11.023300
1.149700	-31.512300	-7.518090
17.349500	-32.163100	-11.675100
28.512500	-35.801900	-21.232400
15.985500	-33.841900	-13.182600
0.001232	-34.001200	-9.542720
-17.428100	-35.880400	-15.762000
-17.814400	33.016300	-26.462300
-34.296600	40.258200	-21.476400
-52.646100	33.092100	-36.121600
-35.994300	25.821900	-27.395500
18.324300	35.303800	-26.939200
34.804900	41.630500	-21.964800
54.781400	35.020900	-37.025300
37.374800	26.726300	-27.350800
-17.443400	49.119600	-14.483100
-32.870200	53.826300	-17.320500
-45.983800	52.341600	-22.488900
18.478800	48.596200	-17.257800
33.836000	53.076100	-18.185400
52.718200	52.338800	-29.288600
