ply
format ascii 1.0
element vertex 26
property float x
property float y
property float z
end_header
0.782772	1.952880	-0.554157
0.325010	-12.220600	-10.016000
-18.640800	-8.970870	-17.145500
19.059500	-8.343050	-15.332000
-24.719800	-35.440500	-22.776100
-16.051400	-31.491700	-15.386200
0.310919	-30.804900	-9.747650
16.479900	-29.609000	-13.648500
28.778000	-34.871600	-24.112200
16.698500	-33.934600	-16.176000
-0.517867	-34.777300	-10.463500
-17.509800	-35.162300	-17.788000
-20.808200	29.716400	-27.047700
-34.651800	40.736800	-23.017400
-53.875800	30.307600	-40.480600
-37.837100	26.205900	-26.770600
19.366400	32.264900	-25.615200
34.054600	40.170900	-21.481100
53.633300	31.464600	-35.870900
30.996700	25.707000	-24.583700
-18.450200	49.806800	-19.864900
-34.971600	53.552800	-22.284600
-46.896900	50.900600	-28.377700
19.386700	47.256000	-19.865000
34.397100	49.078600	-20.841900
51.948000	47.785100	-31.921200
