ply
format ascii 1.0
element vertex 26
property float x
property float y
property float z
end_header
0.059204	0.021002	-0.031692
0.484951	-13.482000	-8.678160
-17.840400	-13.890100	-14.830700
23.655900	-11.884400	-19.741700
-25.922200	-39.529600	-25.759900
-14.673200	-37.435500	-14.615000
-0.934386	-37.155300	-9.121520
14.546700	-35.490000	-11.732600
29.853500	-35.415300	-19.440000
14.891600	-39.681000	-12.742300
-1.435290	-40.704700	-11.058700
-16.661200	-41.266300	-20.473700
-23.273500	30.706400	-26.719900
-35.067500	39.541400	-22.650700
-52.823900	32.589800	-37.468400
-38.047800	26.613100	-27.637700
18.328500	33.428300	-26.281500
33.975700	39.808400	-20.337000
55.586100	34.086700	-38.750000
32.106800	28.302400	-23.237600
-18.534200	45.845600	-18.309500
-32.451100	51.791200	-19.812700
-48.344900	50.321300	-26.230000
17.643800	46.542900	-16.557100
33.146000	51.048500	-17.432700
51.625600	48.732400	-28.372900
