ply
format ascii 1.0
element vertex 26
property float x
property float y
property float z
end_header
-0.492503	-0.151071	-0.029617
0.934319	-12.875000	-11.608500
-20.558300	-12.581700	-20.129500
22.604600	-10.390000	-19.611000
-28.021300	-39.592700	-28.388300
-16.255300	-36.552600	-18.338400
-1.036960	-35.525200	-12.984900
19.738300	-35.818000	-17.313700
29.062300	-38.767500	-28.669500
17.169600	-38.265900	-19.435900
-2.307320	-38.376300	-14.927900
-22.035000	-40.963400	-26.524600
-16.443800	30.130200	-32.988100
-34.519700	38.442800	-30.412300
-50.779300	30.562500	-40.004300
-35.810200	23.824800	-32.986800
19.558500	35.946000	-32.523500
35.776500	44.988200	-29.240400
57.290100	35.185500	-45.922900
37.409700	29.592400	-31.527200
-17.214000	50.431200	-21.030500
-31.747000	53.841400	-23.557700
-41.884600	52.087100	-29.228700
15.019200	50.106400	-21.746300
31.140500	54.691700	-23.452700
51.626600	53.064400	-35.760400
