ply
format ascii 1.0
element vertex 26
property float x
property float y
property float z
end_header
-1.769180	2.252820	-0.045983
-1.908660	-8.245780	-6.649160
-19.911900	-7.208670	-15.173800
20.361100	-7.727190	-16.083000
-24.978500	-38.980600	-23.229800
-13.903900	-34.213100	-10.708700
-0.283755	-34.034400	-4.989590
18.659000	-33.831200	-11.762600
28.200700	-37.748200	-23.458800
17.771400	-36.209900	-14.239500
-1.789440	-36.652600	-7.829340
-18.329100	-38.146300	-17.003900
-19.001100	23.696100	-28.373000
-33.355700	31.399200	-24.801600
-48.735100	23.430200	-39.218900
-36.641500	14.877600	-32.005900
16.832300	26.728200	-27.305300
32.865700	34.309100	-23.014200
50.933200	28.928500	-39.663800
33.528000	22.340000	-24.886000
-17.663700	38.190300	-17.941900
-35.694100	42.466400	-23.221700
-51.913000	40.604100	-36.981000
15.584900	36.675100	-20.191100
27.292900	41.622500	-18.770300
46.777300	42.373300	-31.570900
