ply
format ascii 1.0
element vertex 26
property float x
property float y
property float z
end_header
-1.360570	1.766280	-0.719425
-1.992750	-12.619400	-13.946900
-21.730300	-8.705470	-16.955000
23.450100	-11.746600	-24.957700
-31.400800	-36.636500	-32.063000
-18.274100	-34.287100	-20.478400
-2.630770	-32.850400	-16.905200
15.693500	-35.829300	-18.152300
27.800000	-37.676500	-24.270200
14.141400	-39.139400	-18.815900
-4.455510	-36.928000	-17.344900
-18.724600	-38.328600	-21.145800
-16.066200	31.181900	-33.753700
-33.363000	39.522200	-29.830800
-50.835700	31.570600	-40.653600
-33.286800	25.194500	-32.557800
16.414100	30.265200	-33.720900
35.939200	37.214900	-29.160000
52.960000	28.284300	-40.681600
32.333300	22.470800	-32.936600
-14.324600	44.865300	-21.395400
-30.022000	50.541200	-21.477300
-46.397000	48.962500	-29.657000
16.632100	45.339100	-21.723200
31.883900	50.116800	-21.562200
51.808100	46.104900	-32.229800
