ply
format ascii 1.0
element vertex 26
property float x
property float y
property float z
end_header
-0.316486	-2.266710	0.325888
-0.837662	-14.984600	-8.477810
-18.648700	-15.069400	-20.752000
22.146900	-15.871200	-24.907200
-31.365000	-45.117700	-29.675900
-17.418000	-43.021600	-19.417800
-1.776430	-41.930000	-13.700500
15.828900	-42.383200	-18.508900
28.447000	-47.860100	-31.402500
16.235800	-45.754900	-24.118100
-3.791970	-46.873400	-17.323800
-19.646400	-47.291400	-24.095700
-22.961200	31.626700	-32.509200
-39.489500	39.016400	-29.328700
-59.028300	31.874500	-51.890500
-42.485100	22.608200	-36.108000
22.634100	32.486000	-31.344600
39.531700	41.189700	-27.573300
59.171600	34.030600	-47.299300
38.102200	26.184500	-31.207100
-17.857000	48.980900	-22.631600
-38.964300	55.669300	-25.858800
-56.205500	51.995500	-38.184000
19.664500	49.060600	-23.123400
36.109800	54.713900	-23.230800
56.311500	52.011200	-35.281200
