ply
format ascii 1.0
element vertex 26
property float x
property float y
property float z
end_header
-1.190960	2.847860	-0.423625
0.303646	-8.859580	-8.087590
-16.407300	-10.311900	-9.815950
19.339200	-10.423000	-14.229600
-20.631200	-33.426400	-14.494900
-12.852300	-31.503700	-9.533490
2.040810	-30.492700	-3.721740
19.142200	-30.425800	-10.348900
27.490300	-33.615400	-19.417700
17.673300	-33.504600	-11.572500
0.047655	-33.713200	-6.248280
-12.934200	-34.519700	-11.983800
-19.594000	24.721600	-26.400900
-35.936500	32.535900	-22.492800
-50.344900	25.390700	-34.838000
-40.888700	19.834900	-30.819400
17.356700	27.780300	-24.622100
33.130300	34.097400	-19.393800
50.980200	29.968500	-34.060100
32.929900	21.581500	-25.140900
-16.377200	38.891800	-14.495100
-30.967500	43.546100	-18.415300
-46.168000	40.253300	-25.348100
18.541700	38.088400	-15.080000
32.887500	43.438900	-17.365700
49.517000	41.422700	-28.471700
