ply
format ascii 1.0
element vertex 26
property float x
property float y
property float z
end_header
-0.567300	2.006690	-0.454282
-1.013410	-8.982450	-6.267350
-19.820400	-9.308750	-18.004300
20.482600	-10.827900	-19.710400
-27.760700	-33.137500	-21.239300
-16.474300	-30.585400	-14.299300
0.093476	-28.944400	-8.173940
14.646900	-29.719700	-9.736100
23.398400	-34.143000	-17.204400
12.727500	-33.165100	-13.616300
-1.992460	-32.270400	-12.092100
-16.538400	-33.326400	-16.432600
-18.991900	26.463000	-31.261000
-34.002500	36.042200	-27.517500
-54.656000	27.015800	-45.535600
-37.434000	20.843100	-32.156200
16.634100	27.356400	-30.174600
32.427500	37.267200	-25.490100
52.512600	27.362000	-41.865000
32.008100	21.266000	-29.663700
-15.532800	42.759000	-20.852900
-28.567400	48.115200	-20.375500
-43.215900	47.121500	-27.229200
19.272900	45.097500	-21.580100
32.526800	50.211800	-22.607500
50.613400	47.005800	-34.303300
