ply
format ascii 1.0
element vertex 26
property float x
property float y
property float z
end_header
-3.291560	0.792967	-0.403311
-0.898511	-12.182000	-8.257460
-19.128400	-14.074100	-17.117600
18.996700	-12.231900	-15.067300
-29.984900	-41.041900	-24.376200
-22.294300	-40.566000	-18.184700
0.700216	-35.555500	-10.188600
17.734600	-37.470600	-15.388700
31.463300	-39.302100	-24.614000
16.782300	-40.203300	-17.388700
-1.829820	-38.688000	-12.956600
-20.462900	-43.157300	-18.803900
-20.576300	24.160500	-28.489700
-40.280800	31.877800	-28.105300
-51.924300	22.452700	-41.012700
-37.826500	17.774600	-30.456700
15.789700	26.742000	-26.362600
33.289200	36.915800	-24.576700
50.662500	27.200700	-41.058500
32.346200	21.314500	-27.424700
-21.398000	40.529400	-19.982400
-41.944600	45.077700	-26.025500
-54.738300	40.297000	-38.597900
15.568600	44.500100	-17.799000
32.157700	51.393700	-21.944300
51.651300	47.057000	-38.715100
