ply
format ascii 1.0
element vertex 26
property float x
property float y
property float z
end_header
-2.866240	1.665670	-0.484085
-0.421078	-10.661000	-3.943300
-16.562300	-11.476500	-14.237400
20.756900	-9.637330	-13.349000
-21.723000	-37.840100	-23.473300
-13.132500	-35.097300	-17.670900
1.599470	-34.379100	-13.330800
18.688500	-34.411200	-17.533200
30.294200	-37.619200	-28.789300
17.426400	-38.015200	-19.107500
0.459403	-38.754400	-15.778700
-14.462300	-39.197000	-21.134700
-18.217000	32.599700	-24.856900
-33.903900	39.462600	-20.209600
-51.968400	31.287900	-35.044100
-34.001400	24.421300	-24.214500
9.794890	35.572200	-21.917800
30.982100	42.477100	-19.151100
50.403200	37.084300	-30.446300
35.179200	27.902900	-20.672300
-21.542400	49.232800	-16.437200
-37.023500	51.487700	-20.226600
-51.676700	49.966900	-33.564300
20.571100	51.430900	-16.473000
35.519500	55.892400	-19.902300
47.170400	53.418200	-27.898800
