ply
format ascii 1.0
element vertex 26
property float x
property float y
property float z
end_header
-0.145639	3.121390	-0.963446
-0.717793	-10.159300	-10.562800
-18.552700	-9.298460	-14.687300
20.502300	-7.908260	-14.133800
-23.683800	-36.465100	-21.319100
-15.664500	-32.643800	-14.380100
0.657740	-29.545300	-7.462050
18.246800	-31.168100	-12.990700
30.109700	-36.001000	-21.279900
16.465000	-34.618100	-14.439300
-1.748370	-33.088700	-13.395800
-15.531900	-35.511700	-16.017700
-23.428000	32.734400	-27.858200
-38.316500	42.240300	-24.471700
-59.367900	33.145000	-44.485700
-40.179700	26.734600	-30.278200
18.115000	31.747400	-26.837100
35.577400	40.123100	-21.260200
53.782900	32.692300	-35.912400
36.743500	27.557800	-26.864900
-21.033100	49.677000	-17.414600
-36.675400	54.508300	-19.835300
-48.076900	54.148700	-27.215300
22.088500	49.250800	-17.602600
39.658400	55.598800	-21.109200
53.199900	48.423900	-30.206400
