ply
format ascii 1.0
element vertex 26
property float x
property float y
property float z
end_header
0.668138	2.840280	-0.282268
1.071440	-7.855910	-7.000680
-15.027200	-7.912970	-11.508500
19.528300	-8.210000	-14.274800
-25.454500	-32.146200	-19.649300
-12.676400	-29.776500	-11.324900
3.663040	-28.478200	-5.965780
17.075300	-27.917500	-10.143200
33.235300	-32.617400	-22.018400
16.995500	-31.373600	-13.593600
2.548210	-31.666300	-8.760340
-15.349300	-33.790200	-16.160600
-16.450500	31.041200	-25.906300
-30.575000	34.877600	-21.083200
-50.990400	30.067100	-35.531800
-33.591700	23.693800	-26.749000
18.067500	31.041800	-25.919800
32.541500	36.161100	-20.038600
51.346600	29.901400	-31.609100
33.967600	24.102800	-24.250000
20.350100	41.850800	-13.512400
-34.513300	44.845700	-17.021400
-48.626500	43.447500	-25.697800
34.300100	46.984000	-16.269800
48.198900	45.365800	-22.028700
0.000000	0.000000	0.000000
