ply
format ascii 1.0
element vertex 26
property float x
property float y
property float z
end_header
0.752836	-1.066800	-0.234303
1.129120	-9.782090	-7.294340
-15.568800	-15.763400	-13.893700
20.597600	-10.572200	-16.272000
-21.305400	-42.749600	-22.482700
-9.289540	-37.667900	-12.746800
3.988120	-36.221700	-8.730870
18.976000	-34.508300	-11.239700
31.696100	-36.797700	-18.048800
19.357400	-37.145100	-13.143800
4.096680	-38.981300	-10.059800
-16.529600	-43.789500	-22.048400
-22.105600	28.640900	-26.074400
-38.096600	34.025800	-22.776400
-56.163700	23.948400	-37.762900
-37.192700	22.040100	-26.072200
15.502500	33.639300	-23.754700
30.024700	44.801400	-19.570900
47.806100	38.901900	-29.725600
32.105100	31.620600	-21.737500
-22.667500	45.901900	-17.424800
-39.591300	48.611400	-20.504000
-56.049600	48.368000	-32.648900
11.980100	50.347800	-16.635400
27.101400	57.834400	-17.821600
46.417700	55.673900	-27.054300
