ply
format ascii 1.0
element vertex 26
property float x
property float y
property float z
end_header
-1.825330	-0.242515	0.060830
-2.012780	-13.150500	-13.251100
-17.874800	-10.050300	-15.754800
21.284700	-8.649980	-18.648700
-27.209300	-34.876000	-30.499000
-14.618600	-30.059600	-18.810300
2.014690	-28.507900	-12.497200
19.723300	-29.715200	-18.223300
30.394000	-33.485100	-30.349300
16.630300	-32.555000	-18.789300
0.151341	-31.964100	-15.353300
-15.166100	-33.837700	-19.769900
-17.467600	29.865900	-27.605300
-34.291600	38.888600	-22.893600
-55.118100	30.200900	-44.727000
-34.814700	21.824700	-29.735200
20.231400	30.325100	-27.819700
33.901500	39.731600	-22.465800
53.687100	31.765900	-38.100100
39.069500	26.279800	-27.689100
-15.447700	50.102900	-17.786600
-34.224900	54.670800	-22.426300
-47.269400	52.303900	-31.015300
20.908300	49.442600	-19.361300
32.329900	53.941400	-20.441900
50.400300	53.034100	-33.048700
