ply
format ascii 1.0
element vertex 26
property float x
property float y
property float z
end_header
-0.877110	1.558670	0.022078
-0.887806	-8.490450	-6.054290
-17.811000	-9.675360	-13.413400
18.525700	-13.245000	-18.014200
-26.517400	-35.310600	-17.920400
-16.244700	-32.087200	-10.646800
-0.862235	-31.916600	-4.687440
16.614700	-33.701100	-11.312600
25.147000	-36.646300	-17.973500
13.691500	-35.617800	-12.322700
-3.431560	-34.573900	-7.788720
-18.138400	-35.638900	-14.286400
-22.866200	29.163400	-26.780000
-39.882500	37.200200	-24.465600
-56.940400	27.973700	-41.297200
-41.251600	25.071900	-27.421100
17.475300	28.328500	-28.450400
37.906500	35.319400	-23.559000
55.458800	28.229500	-36.338200
34.687300	22.298500	-26.454600
-18.442100	43.965300	-16.150200
-35.227300	49.775700	-20.257500
-47.014500	47.394700	-26.338100
15.380400	42.319400	-17.170500
32.307200	46.909500	-18.697000
48.417400	44.689300	-26.632900
