ply
format ascii 1.0
element vertex 26
property float x
property float y
property float z
end_header
0.716850	1.643470	-0.281288
1.203570	-8.975190	-4.360300
-15.054200	-8.464050	-15.421200
20.879500	-8.768360	-19.637700
-23.253500	-32.167500	-21.083300
-12.128100	-29.912000	-12.302900
1.014800	-29.414300	-6.993560
15.415600	-29.774700	-10.964400
28.643100	-33.355800	-22.650200
14.646700	-32.332500	-12.121300
1.014060	-31.955000	-9.546630
-13.366000	-33.148500	-14.721600
-16.225500	28.491900	-29.435800
-31.601900	35.760400	-25.006600
-50.382100	27.763300	-41.013700
-36.212400	21.860300	-31.727000
15.378200	32.192600	-27.656900
33.417800	40.767000	-23.308900
53.016200	32.449600	-36.928600
34.656400	26.333100	-25.486600
-15.693800	48.597200	-19.020400
-30.380000	50.494100	-22.390500
-45.692900	49.293400	-30.387900
19.878200	50.405600	-18.755000
34.135200	55.057800	-21.690600
51.130400	53.846000	-34.820900
