ply
format ascii 1.0
element vertex 26
property float x
property float y
property float z
end_header
-0.604114	2.345840	-0.450966
-1.506500	-9.099890	-9.875760
-19.725500	-9.189980	-14.928000
21.436800	-8.204480	-13.946200
-24.459000	-35.099100	-18.012400
-14.094100	-32.970400	-11.243400
0.907807	-30.838900	-4.840620
16.142500	-32.366600	-9.150240
27.353800	-37.267400	-19.776600
15.238900	-35.836000	-11.990700
-2.414990	-33.996000	-10.751000
-14.193000	-36.452800	-13.178600
-20.182700	29.967500	-26.558300
-34.770900	39.705400	-21.225500
-56.340000	29.766500	-42.443300
-35.052400	23.476100	-26.727900
15.905300	32.649800	-24.861800
32.219300	40.403700	-18.921600
51.627500	30.777000	-33.328200
32.287100	26.135000	-23.128200
-23.230600	47.206900	-19.305600
-36.900700	50.486200	-20.233900
-53.736100	47.747600	-31.918300
18.146900	46.984000	-17.415000
33.502000	51.595200	-18.392800
48.888000	45.706600	-26.230000
