ply
format ascii 1.0
element vertex 26
property float x
property float y
property float z
end_header
-0.035663	-3.573090	0.013388
1.213640	-17.398200	-13.172800
-20.283000	-17.586200	-19.815800
26.621300	-14.995700	-22.254900
-28.189700	-43.396500	-27.972000
-15.683000	-38.298700	-15.424200
0.516162	-38.977300	-11.228000
24.041100	-39.977100	-20.107600
34.017300	-43.617600	-29.145800
24.245900	-43.132300	-22.005700
-0.589115	-42.261100	-12.485400
-17.685400	-42.512900	-17.829000
-19.146000	33.225500	-29.244400
-36.950500	42.874100	-25.330100
-56.760500	32.962000	-43.002300
-37.425300	27.863000	-28.619900
18.521700	36.061100	-28.608900
37.781800	48.500700	-24.717900
60.726200	38.153900	-44.116600
38.662200	29.242200	-27.745100
-18.512400	54.050900	-21.062600
-35.434700	60.201000	-21.333900
-51.549100	59.321700	-31.817700
19.855300	56.616600	-19.706000
36.970400	62.712600	-22.138300
53.561900	58.555900	-30.299700
