ply
format ascii 1.0
element vertex 26
property float x
property float y
property float z
end_header
-0.696731	1.392540	0.061626
-0.768582	-9.402060	-10.143200
-18.938300	-10.936700	-19.099600
18.558900	-9.196740	-18.967700
-23.811000	-35.911400	-24.796900
-14.784200	-32.528600	-16.589400
-2.411360	-32.930000	-12.573600
13.558500	-31.982600	-15.439000
22.182300	-33.768700	-21.012500
12.128600	-34.751600	-17.909700
-2.376850	-35.420800	-14.013100
-16.373000	-35.741000	-19.048500
-18.271800	30.814400	-27.381500
-34.117900	35.864600	-22.804900
-52.670900	27.189900	-41.111600
-37.722900	21.468300	-29.273800
15.565100	29.898300	-26.770500
31.815700	36.658000	-21.611700
49.968800	30.783700	-37.204900
31.108200	21.893900	-26.617000
-23.397000	45.697000	-20.596800
-34.978700	48.106900	-22.704500
-47.699500	44.868200	-29.789900
13.485400	43.120500	-20.870000
29.930600	46.542900	-20.399300
48.812100	45.892200	-31.005700
