ply
format ascii 1.0
element vertex 26
property float x
property float y
property float z
end_header
-0.520942	2.621460	-0.430338
-0.563896	-7.961780	-6.531030
-18.130900	-10.222000	-12.075200
19.096900	-8.882680	-11.809700
-24.195000	-34.594100	-15.738500
-19.329800	-31.447300	-11.735800
1.337420	-28.193100	-4.060750
17.148400	-29.444500	-9.211320
30.912400	-35.287100	-19.317600
15.359300	-32.995300	-10.938500
0.451464	-32.402600	-4.083860
-17.802400	-34.366800	-10.846700
-22.071500	30.107600	-26.976100
-38.287600	38.163000	-23.651500
-53.753800	29.379200	-39.159400
-39.713100	24.180600	-29.965100
18.706000	33.259200	-25.598300
32.433500	38.346500	-20.702800
47.373400	31.297200	-31.090000
33.377900	27.668700	-24.688200
-19.408300	45.154300	-17.027700
-33.623200	49.090200	-19.687500
-46.718500	46.849000	-27.154300
15.383100	43.673200	-15.819300
28.399500	48.267400	-16.913200
45.943200	47.565800	-25.475900
