ply
format ascii 1.0
element vertex 26
property float x
property float y
property float z
end_header
-0.870673	1.073790	-0.197252
-0.607744	-10.630900	-6.644530
-17.123000	-13.024400	-12.085300
20.089100	-11.297500	-12.470200
-25.920400	-37.385100	-22.702600
-13.491700	-33.166800	-10.418100
1.228770	-31.687600	-4.998990
18.803000	-31.546500	-11.773900
30.170900	-34.193000	-20.573100
17.858800	-34.107600	-13.830100
-0.461363	-34.695500	-7.363920
-15.230200	-36.305000	-14.791700
-20.001400	30.021900	-23.524700
-36.139400	36.722400	-20.244400
-53.428200	28.625600	-34.767800
-38.972600	23.604100	-26.253900
19.731900	31.799800	-22.176400
32.616100	39.252100	-17.723900
50.398900	32.662900	-29.323700
36.476100	26.321000	-23.586400
-17.791700	47.031700	-14.554300
-33.352200	50.466600	-16.930600
-50.276400	50.776700	-26.633800
20.567000	46.856500	-13.046400
34.116300	50.662200	-14.967900
50.571900	48.221500	-24.795500
