ply
format ascii 1.0
element vertex 26
property float x
property float y
property float z
end_header
-1.921810	-3.015400	0.025025
-1.553590	-13.053700	-7.671690
-17.846700	-14.778400	-16.171000
19.356800	-14.631100	-19.251300
-27.542500	-42.628700	-31.639500
-16.281100	-39.964000	-22.131300
0.710842	-41.093600	-14.517100
16.993900	-39.743400	-22.077100
28.709100	-42.246300	-34.603800
16.384700	-41.492200	-25.641700
-1.220890	-42.403400	-20.463700
-17.898800	-42.197300	-26.885300
-21.156900	35.117700	-29.497100
-38.757900	42.364400	-26.585100
-56.638100	34.149800	-40.733800
-40.795100	26.836300	-33.928200
16.672000	35.882300	-27.523000
31.762600	45.746800	-23.769600
49.480600	38.952100	-34.529200
32.855800	29.387500	-28.947900
-21.772600	54.392400	-19.940400
-35.913300	57.673800	-22.955700
-49.811600	57.592700	-30.535000
15.160200	57.195000	-17.710400
30.464200	61.839600	-20.586700
45.709500	58.814300	-29.370700
