ply
format ascii 1.0
element vertex 26
property float x
property float y
property float z
end_header
-0.035557	1.955010	-0.281686
0.317895	-7.651930	-4.925440
-19.659800	-10.548900	-17.914500
20.856700	-11.036700	-18.320500
-27.712200	-38.653900	-21.243700
-15.866700	-33.881600	-12.755500
-1.535540	-31.621000	-7.860260
17.112500	-32.102800	-11.138000
33.252300	-35.292500	-20.326200
16.227600	-34.737800	-11.982100
-0.960524	-34.865000	-9.054780
-18.784600	-38.051500	-15.699900
-19.177900	29.210700	-27.975500
-36.753200	35.389000	-23.709500
-54.486400	28.500900	-40.278700
-35.856700	19.443400	-30.092600
17.204700	29.567100	-26.221300
33.757100	36.499500	-20.762500
51.991400	31.001200	-33.772800
33.828400	24.419700	-25.361200
-21.003100	46.577400	-17.848900
-35.010700	49.766400	-21.288200
-47.069600	48.733800	-27.121600
19.889000	45.154800	-17.270100
34.926100	50.365900	-19.151400
48.793000	48.613400	-26.233300
