ply
format ascii 1.0
element vertex 26
property float x
property float y
property float z
end_header
-0.314348	-1.091000	0.049858
-0.332705	-11.510900	-5.164660
-17.523400	-11.903300	-18.666400
19.024500	-9.576820	-13.700200
-26.861500	-34.438800	-32.395200
-13.674500	-32.165000	-19.118300
0.344737	-32.101100	-13.838000
13.443500	-31.275000	-17.037800
28.190000	-30.145800	-26.837200
13.480200	-33.829200	-19.198000
-0.954167	-34.141000	-16.343500
-15.764100	-34.219500	-22.053100
-19.754200	34.997700	-30.441900
-33.995900	43.844200	-26.796100
-50.996100	34.638400	-39.820700
-33.362400	29.866600	-28.901700
16.078600	35.839600	-29.265200
33.342000	43.621700	-24.538400
49.189200	36.685800	-34.918200
34.056500	32.031400	-26.569500
-21.401000	50.606400	-22.851700
-35.760700	55.139900	-26.435800
-54.772500	54.473500	-41.988100
17.759800	50.735900	-20.381100
31.781300	56.859700	-22.826500
51.450900	53.018200	-34.505200
