ply
format ascii 1.0
element vertex 26
property float x
property float y
property float z
end_header
-1.036320	-0.271041	-0.088455
-1.560100	-13.120800	-11.426700
-16.285500	-13.350100	-19.394600
18.957500	-12.867100	-19.092200
-26.735300	-45.212400	-27.546900
-18.928300	-42.145900	-20.927900
0.527529	-40.629800	-12.290900
16.675900	-42.417000	-18.542300
26.243800	-43.465800	-23.479100
15.720000	-45.627100	-19.626700
-1.701780	-43.575800	-15.336100
-21.252500	-45.390300	-26.311200
-16.348900	27.099300	-35.292000
-33.415000	35.988500	-31.863300
-53.271100	28.793900	-45.555500
-37.036200	21.361300	-37.335500
18.097500	26.555100	-34.397500
34.173500	34.486400	-31.206600
52.032400	28.084600	-42.566300
33.705900	21.268200	-35.300300
-12.394600	45.464500	-24.079500
-34.341600	49.783000	-27.923900
-49.713600	45.928400	-34.381900
16.512000	45.000100	-24.092600
35.112300	48.748900	-27.334800
50.444000	43.916900	-33.805600
