ply
format ascii 1.0
element vertex 26
property float x
property float y
property float z
end_header
0.005300	2.454690	-0.390852
-0.870004	-8.968760	-5.446480
-18.023800	-11.934500	-17.095300
18.766100	-12.307500	-16.395800
-25.023200	-38.535400	-19.692000
-16.034400	-34.656300	-14.237400
0.521642	-33.323300	-5.447710
13.703000	-34.438700	-10.015800
22.820400	-37.450200	-16.652100
11.683900	-37.262900	-12.876800
-1.600220	-36.346600	-9.001490
-16.967700	-37.801100	-15.962000
-17.887800	31.861400	-27.925000
-32.247300	37.072100	-22.979600
-53.511200	30.161100	-40.068800
-34.732600	25.769000	-27.814800
18.139500	30.427500	-27.412200
33.932100	35.230500	-22.938300
50.872700	30.382300	-35.148700
35.079700	22.973700	-28.293400
-14.770800	46.255600	-15.338600
-30.933200	48.591100	-16.142600
-44.146000	48.983900	-22.682300
18.625200	44.807500	-14.395100
31.770800	47.740500	-16.494200
49.687400	48.962100	-26.132800
