ply
format ascii 1.0
element vertex 26
property float x
property float y
property float z
end_header
1.942950	0.175518	-0.099920
1.146800	-13.447900	-10.085300
-20.945800	-12.420400	-15.314900
23.760000	-12.241500	-21.002700
-27.530000	-38.694200	-24.589300
-16.121900	-35.969600	-11.594700
-2.286000	-36.347500	-6.249130
15.740300	-36.679600	-11.475500
28.595700	-41.102200	-25.465400
14.536100	-39.003200	-12.022800
-3.183770	-39.342600	-7.624360
-16.741300	-38.968900	-13.296500
-17.951600	30.663300	-26.275300
-38.059100	36.717900	-24.210800
-53.470200	29.498600	-39.150100
-37.257400	23.593100	-27.645300
18.884300	31.528100	-25.871500
33.232500	39.310700	-23.651300
53.311400	28.897200	-36.208500
33.584800	25.781800	-26.392500
-14.549100	49.559200	-14.949900
-33.842200	53.611500	-19.351800
-46.704000	53.118200	-28.010300
18.275300	46.441300	-17.221400
34.796600	50.975900	-19.036700
53.235700	50.123800	-29.054800
