ply
format ascii 1.0
element vertex 26
property float x
property float y
property float z
end_header
0.097901	-1.672750	0.094094
-0.294975	-13.639300	-12.378500
-17.068400	-11.740900	-14.938600
16.363700	-11.629000	-13.308700
-22.996400	-38.647900	-20.047000
-13.609900	-35.445200	-14.032200
-1.531050	-35.378600	-8.796630
13.883400	-35.287100	-12.449400
23.487400	-37.430600	-17.977400
13.117900	-38.919200	-13.211600
-2.658110	-38.749200	-9.976170
-17.852500	-39.977800	-17.844300
-19.037300	32.280500	-30.225900
-36.340200	45.998500	-29.519600
-53.733900	30.635700	-40.702100
-36.938400	25.363100	-27.522400
16.883800	31.923000	-26.950600
33.206000	43.335200	-23.881400
52.475400	31.461300	-39.686300
32.632600	24.369800	-26.129300
-24.144100	57.948600	-23.053400
-37.399400	60.711600	-27.654200
-49.880600	60.626600	-37.543500
16.968600	56.404000	-21.899500
30.141600	59.399200	-23.728500
42.559800	59.074600	-30.316000
