ply
format ascii 1.0
element vertex 26
property float x
property float y
property float z
end_header
-1.230750	4.446060	-1.156020
0.011242	-7.718050	-6.316010
-23.574600	-6.010660	-23.640800
24.192500	-2.558490	-20.360500
-26.968500	-31.365200	-25.747900
-18.827700	-29.199300	-19.517800
1.219120	-26.631500	-11.966000
18.247000	-26.307700	-15.447200
29.231600	-31.743100	-25.341200
17.218300	-30.040200	-16.958700
-0.515347	-29.740500	-13.563100
-17.857000	-31.870600	-21.142600
-22.548800	28.806000	-32.972900
-39.153700	34.141100	-27.725000
-58.229900	28.807300	-46.362100
-42.533300	23.143600	-31.564900
15.956800	30.191600	-32.396200
37.084800	36.328500	-25.983400
54.196200	29.095600	-40.809000
32.934900	23.573100	-29.400800
-21.358700	42.531900	-18.887400
-33.241200	47.694800	-21.244800
-45.745100	47.591400	-28.532500
15.595700	41.644800	-18.923700
25.019800	43.497900	-19.667500
47.390400	44.948000	-29.848500
