ply
format ascii 1.0
element vertex 26
property float x
property float y
property float z
end_header
-0.298709	1.202240	-0.039770
-0.764367	-11.070000	-10.921200
-18.773100	-10.515300	-16.436200
24.373900	-9.031680	-21.815000
-29.702600	-33.779700	-23.636000
-15.467400	-31.646300	-13.054000
-0.122353	-31.011600	-7.911190
19.043200	-30.010700	-11.030300
32.175500	-33.143500	-22.662300
18.153200	-32.352800	-11.848800
-1.305590	-33.474200	-9.406890
-18.171600	-34.865100	-17.431300
-19.382600	31.967500	-29.124800
-34.678200	37.827400	-25.294000
-51.914000	30.150700	-37.522400
-36.241400	26.714000	-30.002300
21.498800	33.244200	-28.389000
40.849500	37.876100	-25.908000
55.221900	32.479500	-38.506300
39.303700	27.597600	-30.003300
-21.851000	48.192000	-18.041700
-34.267400	50.456500	-22.447300
-49.742000	49.840600	-31.233600
19.774000	45.208000	-17.696700
36.420900	49.160800	-22.366600
53.598000	47.366100	-32.886900
