ply
format ascii 1.0
element vertex 26
property float x
property float y
property float z
end_header
-1.194970	-1.857130	-0.046810
-2.214100	-10.611000	-9.459980
-17.890300	-11.083000	-18.417700
16.449300	-9.015120	-15.223900
-25.938600	-37.599300	-27.150700
-14.932400	-34.200700	-18.113000
-0.733503	-33.431500	-14.093600
14.059000	-34.026200	-18.085800
26.799500	-37.323000	-28.071600
13.849100	-36.817400	-19.736400
-1.623280	-36.973000	-15.861500
-17.988300	-38.193700	-23.309200
-16.864700	28.392400	-28.252100
-32.911600	34.088100	-24.614300
-47.943000	27.920400	-37.019400
-36.770400	21.981800	-29.139800
15.786500	29.778700	-28.367500
34.144500	35.416700	-24.233800
51.441300	27.593900	-40.037800
31.607200	22.338900	-25.848600
-18.977900	45.402100	-20.766100
-34.669000	48.545300	-24.230200
-46.679800	45.948800	-32.796300
19.081600	43.343600	-22.292000
34.087900	48.935400	-23.768100
52.004900	47.657800	-35.241500
