ply
format ascii 1.0
element vertex 26
property float x
property float y
property float z
end_header
-0.470544	3.051800	-0.365860
-0.205637	-8.620550	-5.207200
-22.908800	-9.259640	-20.781500
20.134200	-9.099150	-13.874900
-33.509100	-35.474500	-32.207100
-19.692300	-32.165800	-14.596700
0.571400	-30.475900	-7.367060
20.999500	-30.125300	-12.383500
30.788400	-33.645900	-22.567400
19.762600	-33.070200	-14.134100
-0.107113	-33.422700	-9.271700
-21.615300	-35.565200	-19.007300
-21.696100	30.763800	-30.071500
-36.412000	36.585200	-25.543000
-53.862500	30.170500	-39.545100
-39.139600	25.595600	-31.338400
19.155000	32.651400	-28.125900
38.306600	38.758100	-24.584600
55.492600	30.696200	-40.193000
39.897900	27.006200	-30.215300
-19.646900	46.395300	-18.493000
-34.719800	47.964800	-23.093100
-47.616400	48.014600	-29.241000
19.826500	43.996300	-17.714500
34.992500	48.280100	-21.715800
51.600300	45.570600	-31.079500
