ply
format ascii 1.0
element vertex 26
property float x
property float y
property float z
end_header
-0.935191	4.121430	-0.354495
-0.176566	-6.930220	-4.631630
-16.304900	-8.203890	-13.480900
20.820200	-9.140220	-18.591900
-23.060000	-31.964500	-20.218000
-12.335500	-30.528900	-13.637200
1.586340	-29.802800	-8.030660
13.636400	-30.254900	-10.921100
24.761800	-31.147100	-18.218900
13.164100	-32.962900	-14.973000
-0.548066	-32.742100	-11.590200
-14.033900	-33.783500	-17.175300
-17.553200	28.012800	-29.241100
-34.618500	36.067200	-26.331300
-52.968200	29.977000	-40.289000
-37.144500	23.924100	-30.937300
17.389900	27.980000	-28.551100
33.786400	35.403100	-23.632600
51.209600	26.420300	-35.382500
35.191800	22.907100	-27.727600
-23.398200	45.683600	-19.212400
-34.472700	47.393200	-22.266600
-49.314600	47.162500	-31.567500
17.798400	45.307600	-19.777100
31.178100	48.496700	-20.420100
49.289000	46.031100	-29.823700
