ply
format ascii 1.0
element vertex 26
property float x
property float y
property float z
end_header
-0.264748	-0.479582	-0.034307
0.152516	-12.033200	-8.738560
-18.514100	-11.536700	-18.534800
19.406300	-11.496800	-14.628400
-22.588200	-33.202700	-20.356400
-15.091800	-32.308000	-16.165700
1.668770	-32.542400	-10.274400
15.558200	-32.079700	-15.326300
24.318900	-34.230500	-21.083600
14.957400	-34.915100	-17.480200
-1.201610	-35.155200	-13.088200
-17.303800	-35.719400	-19.623200
-18.298100	26.575600	-27.809600
-34.442400	34.876700	-23.851400
-52.933100	27.499600	-41.249100
-35.009800	19.814700	-28.037600
21.402000	27.489000	-28.126600
37.120200	32.251700	-24.529400
54.172100	25.518300	-38.291400
39.538100	20.723600	-28.646100
-17.105000	42.190700	-16.997900
-32.777800	45.689800	-21.294800
-48.471100	44.386800	-30.050200
21.119500	41.576100	-19.617300
34.443100	44.370100	-21.280000
52.290300	44.972800	-31.313400
